{"glyphs":{"0":{"ha":1015,"x_min":0,"x_max":0,"o":"m 441 -22 b 993 541 714 -35 943 216 b 631 1110 1045 882 872 1100 b 75 547 364 1122 125 871 b 441 -22 26 227 184 -9 z m 478 262 b 371 546 381 266 338 376 b 590 827 404 716 489 831 b 697 543 688 823 728 709 b 478 262 665 371 578 258 z "},"1":{"ha":537,"x_min":0,"x_max":0,"o":"m 496 1100 l 166 1018 l 111 732 l 213 758 l 66 0 l 363 0 l 576 1100 z "},"2":{"ha":950,"x_min":0,"x_max":0,"o":"m 951 718 b 578 1116 984 930 837 1116 b 130 745 366 1116 172 987 l 339 667 b 535 842 357 770 443 842 b 651 706 616 842 665 784 b -8 112 629 583 455 442 l -32 0 l 823 0 l 876 267 l 559 267 b 951 718 783 370 924 549 z "},"3":{"ha":885,"x_min":0,"x_max":0,"o":"m 856 817 b 547 1128 888 986 757 1128 b 168 852 382 1128 230 1040 l 397 799 b 496 870 421 850 460 870 b 564 787 541 870 574 838 b 384 670 553 724 483 670 l 327 541 b 531 373 485 540 546 463 b 399 254 518 300 464 254 b 279 349 343 254 287 290 l 25 291 b 388 -17 20 154 155 -17 b 824 337 597 -17 786 124 b 705 621 850 481 792 580 b 856 817 784 655 840 732 z "},"4":{"ha":1019,"x_min":0,"x_max":0,"o":"m 999 450 l 899 450 l 945 689 l 649 689 l 602 450 l 446 450 l 814 1098 l 497 1099 l -28 191 l 552 191 l 515 0 l 811 0 l 848 191 l 948 191 z "},"5":{"ha":899,"x_min":0,"x_max":0,"o":"m 553 749 b 418 718 503 749 457 739 l 458 835 l 833 835 l 884 1094 l 300 1094 l 106 515 l 249 444 b 413 516 307 504 363 516 b 549 385 514 516 560 466 b 399 250 538 306 481 250 b 258 332 335 250 277 283 l 13 228 b 390 -17 64 75 212 -17 b 844 374 615 -17 809 133 b 553 749 875 590 758 749 z "},"6":{"ha":912,"x_min":0,"x_max":0,"o":"m 578 699 b 542 696 566 699 553 698 l 866 1093 l 519 1093 b 48 410 159 671 85 557 b 410 -21 2 196 126 -21 b 852 347 643 -21 825 127 b 578 699 878 561 741 699 z m 568 370 b 437 243 558 304 511 243 b 334 368 370 243 323 293 b 466 498 343 438 396 497 b 568 370 532 498 579 448 z "},"7":{"ha":828,"x_min":0,"x_max":0,"o":"m 162 1093 l 110 827 l 472 827 l 12 0 l 338 0 l 937 1043 l 947 1093 z "},"8":{"ha":908,"x_min":0,"x_max":0,"o":"m 395 -22 b 845 331 629 -22 814 124 b 704 618 871 499 777 596 b 883 820 785 632 865 721 b 575 1116 909 970 792 1116 b 187 823 369 1116 210 985 b 284 618 172 711 230 635 b 35 338 168 593 59 479 b 395 -22 -1 140 146 -22 z m 517 696 b 438 791 466 696 429 732 b 543 881 447 844 489 881 b 620 790 594 881 629 846 b 517 696 612 736 571 696 z m 429 237 b 318 364 350 237 307 294 b 468 497 330 435 393 497 b 572 366 539 497 583 441 b 429 237 562 288 503 237 z "},"9":{"ha":913,"x_min":0,"x_max":0,"o":"m 557 1114 b 115 747 323 1114 142 966 b 389 394 89 532 226 394 b 425 397 401 394 412 395 l 101 0 l 448 0 b 918 683 807 422 882 536 b 557 1114 970 896 840 1114 z m 633 724 b 500 595 623 654 570 596 b 399 724 435 595 388 646 b 529 850 409 789 456 850 b 633 724 596 850 643 800 z "}," ":{"ha":424,"x_min":0,"x_max":0,"o":""},"A":{"ha":1141,"x_min":0,"x_max":0,"o":"m 745 0 l 1047 0 l 784 1107 l 627 1107 l -65 0 l 275 0 l 349 127 l 720 127 z m 471 340 l 625 607 l 677 340 z "},"a":{"ha":1141,"x_min":0,"x_max":0,"o":"m 745 0 l 1047 0 l 784 1107 l 627 1107 l -65 0 l 275 0 l 349 127 l 720 127 z m 471 340 l 625 607 l 677 340 z "},"Á":{"ha":1141,"x_min":0,"x_max":0,"o":"m 937 1412 l 710 1412 l 549 1183 l 732 1183 z m 745 0 l 1047 0 l 784 1107 l 627 1107 l -65 0 l 275 0 l 349 127 l 720 127 z m 471 340 l 625 607 l 677 340 z "},"á":{"ha":1141,"x_min":0,"x_max":0,"o":"m 937 1412 l 710 1412 l 549 1183 l 732 1183 z m 745 0 l 1047 0 l 784 1107 l 627 1107 l -65 0 l 275 0 l 349 127 l 720 127 z m 471 340 l 625 607 l 677 340 z "},"Ă":{"ha":1141,"x_min":0,"x_max":0,"o":"m 730 1189 b 981 1393 861 1189 958 1270 l 850 1393 b 746 1302 840 1339 798 1302 b 673 1393 696 1302 663 1341 l 543 1393 b 730 1189 522 1282 600 1189 z m 745 0 l 1047 0 l 784 1107 l 627 1107 l -65 0 l 275 0 l 349 127 l 720 127 z m 471 340 l 625 607 l 677 340 z "},"ă":{"ha":1141,"x_min":0,"x_max":0,"o":"m 730 1189 b 981 1393 861 1189 958 1270 l 850 1393 b 746 1302 840 1339 798 1302 b 673 1393 696 1302 663 1341 l 543 1393 b 730 1189 522 1282 600 1189 z m 745 0 l 1047 0 l 784 1107 l 627 1107 l -65 0 l 275 0 l 349 127 l 720 127 z m 471 340 l 625 607 l 677 340 z "},"Â":{"ha":1141,"x_min":0,"x_max":0,"o":"m 750 1276 l 815 1193 l 1010 1193 l 834 1392 l 686 1392 l 437 1193 l 653 1193 z m 745 0 l 1047 0 l 784 1107 l 627 1107 l -65 0 l 275 0 l 349 127 l 720 127 z m 471 340 l 625 607 l 677 340 z "},"â":{"ha":1141,"x_min":0,"x_max":0,"o":"m 750 1276 l 815 1193 l 1010 1193 l 834 1392 l 686 1392 l 437 1193 l 653 1193 z m 745 0 l 1047 0 l 784 1107 l 627 1107 l -65 0 l 275 0 l 349 127 l 720 127 z m 471 340 l 625 607 l 677 340 z "},"Ä":{"ha":1141,"x_min":0,"x_max":0,"o":"m 560 1194 b 677 1287 614 1194 667 1236 b 596 1381 688 1337 650 1381 b 478 1287 542 1381 488 1337 b 560 1194 468 1236 506 1194 z m 887 1194 b 1005 1287 941 1194 995 1236 b 923 1381 1015 1337 977 1381 b 806 1287 869 1381 815 1337 b 887 1194 795 1236 833 1194 z m 745 0 l 1047 0 l 784 1107 l 627 1107 l -65 0 l 275 0 l 349 127 l 720 127 z m 471 340 l 625 607 l 677 340 z "},"ä":{"ha":1141,"x_min":0,"x_max":0,"o":"m 560 1194 b 677 1287 614 1194 667 1236 b 596 1381 688 1337 650 1381 b 478 1287 542 1381 488 1337 b 560 1194 468 1236 506 1194 z m 887 1194 b 1005 1287 941 1194 995 1236 b 923 1381 1015 1337 977 1381 b 806 1287 869 1381 815 1337 b 887 1194 795 1236 833 1194 z m 745 0 l 1047 0 l 784 1107 l 627 1107 l -65 0 l 275 0 l 349 127 l 720 127 z m 471 340 l 625 607 l 677 340 z "},"À":{"ha":1141,"x_min":0,"x_max":0,"o":"m 876 1183 l 804 1412 l 577 1412 l 694 1183 z m 745 0 l 1047 0 l 784 1107 l 627 1107 l -65 0 l 275 0 l 349 127 l 720 127 z m 471 340 l 625 607 l 677 340 z "},"à":{"ha":1141,"x_min":0,"x_max":0,"o":"m 876 1183 l 804 1412 l 577 1412 l 694 1183 z m 745 0 l 1047 0 l 784 1107 l 627 1107 l -65 0 l 275 0 l 349 127 l 720 127 z m 471 340 l 625 607 l 677 340 z "},"Ā":{"ha":1141,"x_min":0,"x_max":0,"o":"m 978 1358 l 533 1358 l 507 1221 l 951 1221 z m 745 0 l 1047 0 l 784 1107 l 627 1107 l -65 0 l 275 0 l 349 127 l 720 127 z m 471 340 l 625 607 l 677 340 z "},"ā":{"ha":1141,"x_min":0,"x_max":0,"o":"m 978 1358 l 533 1358 l 507 1221 l 951 1221 z m 745 0 l 1047 0 l 784 1107 l 627 1107 l -65 0 l 275 0 l 349 127 l 720 127 z m 471 340 l 625 607 l 677 340 z "},"Ą":{"ha":1141,"x_min":0,"x_max":0,"o":"m 1034 -189 b 953 -201 998 -197 968 -201 b 913 -157 925 -201 913 -180 b 1047 0 913 -111 954 -69 l 784 1107 l 627 1107 l -65 0 l 275 0 l 349 127 l 720 127 l 745 0 l 857 0 b 711 -218 773 -43 711 -123 b 929 -387 711 -323 787 -387 b 1060 -372 968 -387 1012 -382 z m 471 340 l 625 607 l 677 340 z "},"ą":{"ha":1141,"x_min":0,"x_max":0,"o":"m 1034 -189 b 953 -201 998 -197 968 -201 b 913 -157 925 -201 913 -180 b 1047 0 913 -111 954 -69 l 784 1107 l 627 1107 l -65 0 l 275 0 l 349 127 l 720 127 l 745 0 l 857 0 b 711 -218 773 -43 711 -123 b 929 -387 711 -323 787 -387 b 1060 -372 968 -387 1012 -382 z m 471 340 l 625 607 l 677 340 z "},"Å":{"ha":1141,"x_min":0,"x_max":0,"o":"m 722 1158 b 911 1316 817 1158 897 1230 b 775 1475 927 1408 865 1475 b 583 1316 682 1475 599 1407 b 722 1158 568 1229 627 1158 z m 687 1315 b 759 1374 693 1349 725 1374 b 808 1315 793 1374 814 1348 b 736 1257 802 1282 770 1257 b 687 1315 702 1257 681 1283 z m 745 0 l 1047 0 l 784 1107 l 627 1107 l -65 0 l 275 0 l 349 127 l 720 127 z m 471 340 l 625 607 l 677 340 z "},"å":{"ha":1141,"x_min":0,"x_max":0,"o":"m 722 1158 b 911 1316 817 1158 897 1230 b 775 1475 927 1408 865 1475 b 583 1316 682 1475 599 1407 b 722 1158 568 1229 627 1158 z m 687 1315 b 759 1374 693 1349 725 1374 b 808 1315 793 1374 814 1348 b 736 1257 802 1282 770 1257 b 687 1315 702 1257 681 1283 z m 745 0 l 1047 0 l 784 1107 l 627 1107 l -65 0 l 275 0 l 349 127 l 720 127 z m 471 340 l 625 607 l 677 340 z "},"Ã":{"ha":1141,"x_min":0,"x_max":0,"o":"m 639 1284 b 838 1196 699 1284 724 1196 b 1064 1378 911 1196 1006 1233 l 940 1419 b 853 1335 920 1372 891 1335 b 654 1422 793 1335 768 1422 b 428 1240 577 1422 484 1382 l 553 1200 b 639 1284 572 1246 600 1284 z m 627 1107 l -65 0 l 275 0 l 349 127 l 720 127 l 745 0 l 1047 0 l 784 1107 z m 471 340 l 625 607 l 677 340 z "},"ã":{"ha":1141,"x_min":0,"x_max":0,"o":"m 639 1284 b 838 1196 699 1284 724 1196 b 1064 1378 911 1196 1006 1233 l 940 1419 b 853 1335 920 1372 891 1335 b 654 1422 793 1335 768 1422 b 428 1240 577 1422 484 1382 l 553 1200 b 639 1284 572 1246 600 1284 z m 627 1107 l -65 0 l 275 0 l 349 127 l 720 127 l 745 0 l 1047 0 l 784 1107 z m 471 340 l 625 607 l 677 340 z "},"Æ":{"ha":1461,"x_min":0,"x_max":0,"o":"m 1474 823 l 1527 1093 l 649 1093 l -65 0 l 273 0 l 375 157 l 665 157 l 634 0 l 1315 0 l 1368 272 l 983 272 l 1014 429 l 1325 429 l 1372 671 l 1061 671 l 1090 823 z m 531 399 l 789 800 l 711 399 z "},"æ":{"ha":1461,"x_min":0,"x_max":0,"o":"m 1474 823 l 1527 1093 l 649 1093 l -65 0 l 273 0 l 375 157 l 665 157 l 634 0 l 1315 0 l 1368 272 l 983 272 l 1014 429 l 1325 429 l 1372 671 l 1061 671 l 1090 823 z m 531 399 l 789 800 l 711 399 z "},"B":{"ha":941,"x_min":0,"x_max":0,"o":"m 717 616 b 869 808 790 632 852 705 b 588 1093 897 972 782 1093 l 229 1093 l 16 0 l 473 0 b 897 330 709 0 867 143 b 717 616 925 509 823 614 z m 610 753 b 486 669 597 688 539 669 l 436 669 l 469 841 l 517 841 b 610 753 585 841 620 804 z m 616 361 b 469 264 605 303 553 264 l 357 264 l 397 471 l 512 471 b 616 361 585 471 630 426 z "},"b":{"ha":941,"x_min":0,"x_max":0,"o":"m 717 616 b 869 808 790 632 852 705 b 588 1093 897 972 782 1093 l 229 1093 l 16 0 l 473 0 b 897 330 709 0 867 143 b 717 616 925 509 823 614 z m 610 753 b 486 669 597 688 539 669 l 436 669 l 469 841 l 517 841 b 610 753 585 841 620 804 z m 616 361 b 469 264 605 303 553 264 l 357 264 l 397 471 l 512 471 b 616 361 585 471 630 426 z "},"C":{"ha":1053,"x_min":0,"x_max":0,"o":"m 545 -24 b 964 123 687 -24 847 26 l 834 352 b 591 252 753 288 674 252 b 376 559 422 252 343 397 b 688 838 410 724 545 838 b 905 705 773 838 844 797 l 1116 897 b 753 1116 1046 1021 905 1103 b 78 560 473 1139 137 935 b 545 -24 27 241 208 -24 z "},"c":{"ha":1053,"x_min":0,"x_max":0,"o":"m 545 -24 b 964 123 687 -24 847 26 l 834 352 b 591 252 753 288 674 252 b 376 559 422 252 343 397 b 688 838 410 724 545 838 b 905 705 773 838 844 797 l 1116 897 b 753 1116 1046 1021 905 1103 b 78 560 473 1139 137 935 b 545 -24 27 241 208 -24 z "},"Ć":{"ha":1053,"x_min":0,"x_max":0,"o":"m 707 1183 l 913 1412 l 686 1412 l 525 1183 z m 545 -24 b 964 123 687 -24 847 26 l 834 352 b 591 252 753 288 674 252 b 376 559 422 252 343 397 b 688 838 410 724 545 838 b 905 705 773 838 844 797 l 1116 897 b 753 1116 1046 1021 905 1103 b 78 560 473 1139 137 935 b 545 -24 27 241 208 -24 z "},"ć":{"ha":1053,"x_min":0,"x_max":0,"o":"m 707 1183 l 913 1412 l 686 1412 l 525 1183 z m 545 -24 b 964 123 687 -24 847 26 l 834 352 b 591 252 753 288 674 252 b 376 559 422 252 343 397 b 688 838 410 724 545 838 b 905 705 773 838 844 797 l 1116 897 b 753 1116 1046 1021 905 1103 b 78 560 473 1139 137 935 b 545 -24 27 241 208 -24 z "},"Č":{"ha":1053,"x_min":0,"x_max":0,"o":"m 1025 1392 l 808 1392 l 711 1309 l 646 1392 l 452 1392 l 627 1193 l 775 1193 z m 545 -24 b 964 123 687 -24 847 26 l 834 352 b 591 252 753 288 674 252 b 376 559 422 252 343 397 b 688 838 410 724 545 838 b 905 705 773 838 844 797 l 1116 897 b 753 1116 1046 1021 905 1103 b 78 560 473 1139 137 935 b 545 -24 27 241 208 -24 z "},"č":{"ha":1053,"x_min":0,"x_max":0,"o":"m 1025 1392 l 808 1392 l 711 1309 l 646 1392 l 452 1392 l 627 1193 l 775 1193 z m 545 -24 b 964 123 687 -24 847 26 l 834 352 b 591 252 753 288 674 252 b 376 559 422 252 343 397 b 688 838 410 724 545 838 b 905 705 773 838 844 797 l 1116 897 b 753 1116 1046 1021 905 1103 b 78 560 473 1139 137 935 b 545 -24 27 241 208 -24 z "},"Ç":{"ha":1053,"x_min":0,"x_max":0,"o":"m 964 123 l 834 352 b 591 252 753 288 674 252 b 376 559 422 252 343 397 b 688 838 410 724 545 838 b 905 705 773 838 844 797 l 1116 897 b 753 1116 1046 1021 905 1103 b 78 560 473 1139 137 935 b 463 -18 31 267 180 21 l 378 -113 l 407 -154 b 440 -149 420 -151 431 -149 b 480 -180 476 -149 481 -169 b 294 -233 477 -210 425 -233 l 348 -389 b 667 -174 511 -391 656 -286 b 569 -58 673 -109 630 -58 b 553 -59 563 -58 559 -59 l 587 -22 b 964 123 718 -14 859 35 z "},"ç":{"ha":1053,"x_min":0,"x_max":0,"o":"m 964 123 l 834 352 b 591 252 753 288 674 252 b 376 559 422 252 343 397 b 688 838 410 724 545 838 b 905 705 773 838 844 797 l 1116 897 b 753 1116 1046 1021 905 1103 b 78 560 473 1139 137 935 b 463 -18 31 267 180 21 l 378 -113 l 407 -154 b 440 -149 420 -151 431 -149 b 480 -180 476 -149 481 -169 b 294 -233 477 -210 425 -233 l 348 -389 b 667 -174 511 -391 656 -286 b 569 -58 673 -109 630 -58 b 553 -59 563 -58 559 -59 l 587 -22 b 964 123 718 -14 859 35 z "},"Ċ":{"ha":1053,"x_min":0,"x_max":0,"o":"m 699 1193 b 835 1300 761 1193 823 1240 b 741 1409 846 1358 804 1409 b 605 1299 677 1409 616 1358 b 699 1193 593 1241 635 1193 z m 545 -24 b 964 123 687 -24 847 26 l 834 352 b 591 252 753 288 674 252 b 376 559 422 252 343 397 b 688 838 410 724 545 838 b 905 705 773 838 844 797 l 1116 897 b 753 1116 1046 1021 905 1103 b 78 560 473 1139 137 935 b 545 -24 27 241 208 -24 z "},"ċ":{"ha":1053,"x_min":0,"x_max":0,"o":"m 699 1193 b 835 1300 761 1193 823 1240 b 741 1409 846 1358 804 1409 b 605 1299 677 1409 616 1358 b 699 1193 593 1241 635 1193 z m 545 -24 b 964 123 687 -24 847 26 l 834 352 b 591 252 753 288 674 252 b 376 559 422 252 343 397 b 688 838 410 724 545 838 b 905 705 773 838 844 797 l 1116 897 b 753 1116 1046 1021 905 1103 b 78 560 473 1139 137 935 b 545 -24 27 241 208 -24 z "},"D":{"ha":1076,"x_min":0,"x_max":0,"o":"m 585 1093 l 229 1093 l 16 0 l 373 0 b 1053 545 460 0 987 0 b 585 1093 1104 960 814 1094 z m 755 547 b 420 273 727 338 547 273 l 365 273 l 471 822 l 524 822 b 755 547 675 822 781 724 z "},"d":{"ha":1076,"x_min":0,"x_max":0,"o":"m 585 1093 l 229 1093 l 16 0 l 373 0 b 1053 545 460 0 987 0 b 585 1093 1104 960 814 1094 z m 755 547 b 420 273 727 338 547 273 l 365 273 l 471 822 l 524 822 b 755 547 675 822 781 724 z "},"Ð":{"ha":1120,"x_min":0,"x_max":0,"o":"m 629 1093 l 273 1093 l 182 630 l 72 630 l 38 454 l 149 454 l 60 0 l 417 0 b 1098 545 505 0 1031 0 b 629 1093 1148 960 859 1094 z m 800 547 b 465 273 772 338 592 273 l 410 273 l 444 454 l 564 454 l 598 629 l 479 629 l 516 822 l 568 822 b 800 547 720 822 825 724 z "},"ð":{"ha":1120,"x_min":0,"x_max":0,"o":"m 629 1093 l 273 1093 l 182 630 l 72 630 l 38 454 l 149 454 l 60 0 l 417 0 b 1098 545 505 0 1031 0 b 629 1093 1148 960 859 1094 z m 800 547 b 465 273 772 338 592 273 l 410 273 l 444 454 l 564 454 l 598 629 l 479 629 l 516 822 l 568 822 b 800 547 720 822 825 724 z "},"Ď":{"ha":1076,"x_min":0,"x_max":0,"o":"m 767 1193 l 1017 1392 l 800 1392 l 703 1309 l 638 1392 l 444 1392 l 618 1193 z m 585 1093 l 229 1093 l 16 0 l 373 0 b 1053 545 460 0 987 0 b 585 1093 1104 960 814 1094 z m 755 547 b 420 273 727 338 547 273 l 365 273 l 471 822 l 524 822 b 755 547 675 822 781 724 z "},"ď":{"ha":1076,"x_min":0,"x_max":0,"o":"m 767 1193 l 1017 1392 l 800 1392 l 703 1309 l 638 1392 l 444 1392 l 618 1193 z m 585 1093 l 229 1093 l 16 0 l 373 0 b 1053 545 460 0 987 0 b 585 1093 1104 960 814 1094 z m 755 547 b 420 273 727 338 547 273 l 365 273 l 471 822 l 524 822 b 755 547 675 822 781 724 z "},"Đ":{"ha":1120,"x_min":0,"x_max":0,"o":"m 629 1093 l 273 1093 l 182 630 l 72 630 l 38 454 l 149 454 l 60 0 l 417 0 b 1098 545 505 0 1031 0 b 629 1093 1148 960 859 1094 z m 800 547 b 465 273 772 338 592 273 l 410 273 l 444 454 l 564 454 l 598 629 l 479 629 l 516 822 l 568 822 b 800 547 720 822 825 724 z "},"đ":{"ha":1120,"x_min":0,"x_max":0,"o":"m 629 1093 l 273 1093 l 182 630 l 72 630 l 38 454 l 149 454 l 60 0 l 417 0 b 1098 545 505 0 1031 0 b 629 1093 1148 960 859 1094 z m 800 547 b 465 273 772 338 592 273 l 410 273 l 444 454 l 564 454 l 598 629 l 479 629 l 516 822 l 568 822 b 800 547 720 822 825 724 z "},"E":{"ha":843,"x_min":0,"x_max":0,"o":"m 857 823 l 909 1093 l 229 1093 l 16 0 l 697 0 l 750 272 l 366 272 l 396 429 l 707 429 l 754 671 l 443 671 l 473 823 z "},"e":{"ha":843,"x_min":0,"x_max":0,"o":"m 857 823 l 909 1093 l 229 1093 l 16 0 l 697 0 l 750 272 l 366 272 l 396 429 l 707 429 l 754 671 l 443 671 l 473 823 z "},"É":{"ha":843,"x_min":0,"x_max":0,"o":"m 789 1412 l 562 1412 l 401 1183 l 583 1183 z m 857 823 l 909 1093 l 229 1093 l 16 0 l 697 0 l 750 272 l 366 272 l 396 429 l 707 429 l 754 671 l 443 671 l 473 823 z "},"é":{"ha":843,"x_min":0,"x_max":0,"o":"m 789 1412 l 562 1412 l 401 1183 l 583 1183 z m 857 823 l 909 1093 l 229 1093 l 16 0 l 697 0 l 750 272 l 366 272 l 396 429 l 707 429 l 754 671 l 443 671 l 473 823 z "},"Ĕ":{"ha":843,"x_min":0,"x_max":0,"o":"m 581 1189 b 832 1393 713 1189 809 1270 l 702 1393 b 597 1302 692 1339 649 1302 b 525 1393 547 1302 515 1341 l 395 1393 b 581 1189 374 1282 452 1189 z m 857 823 l 909 1093 l 229 1093 l 16 0 l 697 0 l 750 272 l 366 272 l 396 429 l 707 429 l 754 671 l 443 671 l 473 823 z "},"ĕ":{"ha":843,"x_min":0,"x_max":0,"o":"m 581 1189 b 832 1393 713 1189 809 1270 l 702 1393 b 597 1302 692 1339 649 1302 b 525 1393 547 1302 515 1341 l 395 1393 b 581 1189 374 1282 452 1189 z m 857 823 l 909 1093 l 229 1093 l 16 0 l 697 0 l 750 272 l 366 272 l 396 429 l 707 429 l 754 671 l 443 671 l 473 823 z "},"Ě":{"ha":843,"x_min":0,"x_max":0,"o":"m 650 1193 l 900 1392 l 684 1392 l 587 1309 l 522 1392 l 327 1392 l 502 1193 z m 857 823 l 909 1093 l 229 1093 l 16 0 l 697 0 l 750 272 l 366 272 l 396 429 l 707 429 l 754 671 l 443 671 l 473 823 z "},"ě":{"ha":843,"x_min":0,"x_max":0,"o":"m 650 1193 l 900 1392 l 684 1392 l 587 1309 l 522 1392 l 327 1392 l 502 1193 z m 857 823 l 909 1093 l 229 1093 l 16 0 l 697 0 l 750 272 l 366 272 l 396 429 l 707 429 l 754 671 l 443 671 l 473 823 z "},"Ê":{"ha":843,"x_min":0,"x_max":0,"o":"m 602 1276 l 667 1193 l 861 1193 l 686 1392 l 537 1392 l 288 1193 l 505 1193 z m 857 823 l 909 1093 l 229 1093 l 16 0 l 697 0 l 750 272 l 366 272 l 396 429 l 707 429 l 754 671 l 443 671 l 473 823 z "},"ê":{"ha":843,"x_min":0,"x_max":0,"o":"m 602 1276 l 667 1193 l 861 1193 l 686 1392 l 537 1392 l 288 1193 l 505 1193 z m 857 823 l 909 1093 l 229 1093 l 16 0 l 697 0 l 750 272 l 366 272 l 396 429 l 707 429 l 754 671 l 443 671 l 473 823 z "},"Ë":{"ha":843,"x_min":0,"x_max":0,"o":"m 412 1194 b 529 1287 466 1194 519 1236 b 448 1381 539 1337 502 1381 b 330 1287 393 1381 340 1337 b 412 1194 319 1236 357 1194 z m 739 1194 b 857 1287 793 1194 846 1236 b 774 1381 866 1337 829 1381 b 657 1287 720 1381 667 1337 b 739 1194 647 1236 684 1194 z m 857 823 l 909 1093 l 229 1093 l 16 0 l 697 0 l 750 272 l 366 272 l 396 429 l 707 429 l 754 671 l 443 671 l 473 823 z "},"ë":{"ha":843,"x_min":0,"x_max":0,"o":"m 412 1194 b 529 1287 466 1194 519 1236 b 448 1381 539 1337 502 1381 b 330 1287 393 1381 340 1337 b 412 1194 319 1236 357 1194 z m 739 1194 b 857 1287 793 1194 846 1236 b 774 1381 866 1337 829 1381 b 657 1287 720 1381 667 1337 b 739 1194 647 1236 684 1194 z m 857 823 l 909 1093 l 229 1093 l 16 0 l 697 0 l 750 272 l 366 272 l 396 429 l 707 429 l 754 671 l 443 671 l 473 823 z "},"Ė":{"ha":843,"x_min":0,"x_max":0,"o":"m 574 1193 b 710 1300 636 1193 699 1240 b 616 1409 721 1358 679 1409 b 480 1299 553 1409 491 1358 b 574 1193 469 1241 510 1193 z m 857 823 l 909 1093 l 229 1093 l 16 0 l 697 0 l 750 272 l 366 272 l 396 429 l 707 429 l 754 671 l 443 671 l 473 823 z "},"ė":{"ha":843,"x_min":0,"x_max":0,"o":"m 574 1193 b 710 1300 636 1193 699 1240 b 616 1409 721 1358 679 1409 b 480 1299 553 1409 491 1358 b 574 1193 469 1241 510 1193 z m 857 823 l 909 1093 l 229 1093 l 16 0 l 697 0 l 750 272 l 366 272 l 396 429 l 707 429 l 754 671 l 443 671 l 473 823 z "},"È":{"ha":843,"x_min":0,"x_max":0,"o":"m 727 1183 l 655 1412 l 428 1412 l 545 1183 z m 857 823 l 909 1093 l 229 1093 l 16 0 l 697 0 l 750 272 l 366 272 l 396 429 l 707 429 l 754 671 l 443 671 l 473 823 z "},"è":{"ha":843,"x_min":0,"x_max":0,"o":"m 727 1183 l 655 1412 l 428 1412 l 545 1183 z m 857 823 l 909 1093 l 229 1093 l 16 0 l 697 0 l 750 272 l 366 272 l 396 429 l 707 429 l 754 671 l 443 671 l 473 823 z "},"Ē":{"ha":843,"x_min":0,"x_max":0,"o":"m 829 1358 l 384 1358 l 357 1221 l 802 1221 z m 857 823 l 909 1093 l 229 1093 l 16 0 l 697 0 l 750 272 l 366 272 l 396 429 l 707 429 l 754 671 l 443 671 l 473 823 z "},"ē":{"ha":843,"x_min":0,"x_max":0,"o":"m 829 1358 l 384 1358 l 357 1221 l 802 1221 z m 857 823 l 909 1093 l 229 1093 l 16 0 l 697 0 l 750 272 l 366 272 l 396 429 l 707 429 l 754 671 l 443 671 l 473 823 z "},"Ę":{"ha":843,"x_min":0,"x_max":0,"o":"m 857 823 l 909 1093 l 229 1093 l 16 0 l 477 0 b 345 -211 401 -44 345 -121 b 563 -380 345 -317 421 -380 b 694 -365 602 -380 646 -375 l 667 -182 b 587 -195 632 -191 602 -195 b 547 -151 559 -195 547 -174 b 672 0 547 -105 585 -65 l 697 0 l 750 272 l 366 272 l 396 429 l 707 429 l 754 671 l 443 671 l 473 823 z "},"ę":{"ha":843,"x_min":0,"x_max":0,"o":"m 857 823 l 909 1093 l 229 1093 l 16 0 l 477 0 b 345 -211 401 -44 345 -121 b 563 -380 345 -317 421 -380 b 694 -365 602 -380 646 -375 l 667 -182 b 587 -195 632 -191 602 -195 b 547 -151 559 -195 547 -174 b 672 0 547 -105 585 -65 l 697 0 l 750 272 l 366 272 l 396 429 l 707 429 l 754 671 l 443 671 l 473 823 z "},"F":{"ha":805,"x_min":0,"x_max":0,"o":"m 857 823 l 910 1096 l 229 1096 l 16 -1 l 312 -1 l 391 404 l 702 404 l 749 646 l 438 646 l 472 823 z "},"f":{"ha":805,"x_min":0,"x_max":0,"o":"m 857 823 l 910 1096 l 229 1096 l 16 -1 l 312 -1 l 391 404 l 702 404 l 749 646 l 438 646 l 472 823 z "},"G":{"ha":1207,"x_min":0,"x_max":0,"o":"m 656 628 l 614 412 l 836 412 b 597 247 819 355 733 247 b 372 549 450 247 338 363 b 690 845 406 729 551 845 b 895 721 789 845 849 787 l 1098 941 b 753 1115 1031 1028 910 1109 b 76 549 429 1124 131 911 b 557 -26 25 216 216 -26 b 1182 522 892 -26 1127 209 b 1192 628 1187 553 1191 588 z "},"g":{"ha":1207,"x_min":0,"x_max":0,"o":"m 656 628 l 614 412 l 836 412 b 597 247 819 355 733 247 b 372 549 450 247 338 363 b 690 845 406 729 551 845 b 895 721 789 845 849 787 l 1098 941 b 753 1115 1031 1028 910 1109 b 76 549 429 1124 131 911 b 557 -26 25 216 216 -26 b 1182 522 892 -26 1127 209 b 1192 628 1187 553 1191 588 z "},"Ğ":{"ha":1207,"x_min":0,"x_max":0,"o":"m 764 1189 b 1015 1393 895 1189 991 1270 l 884 1393 b 780 1302 874 1339 831 1302 b 707 1393 730 1302 697 1341 l 577 1393 b 764 1189 556 1282 634 1189 z m 656 628 l 614 412 l 836 412 b 597 247 819 355 733 247 b 372 549 450 247 338 363 b 690 845 406 729 551 845 b 895 721 789 845 849 787 l 1098 941 b 753 1115 1031 1028 910 1109 b 76 549 429 1124 131 911 b 557 -26 25 216 216 -26 b 1182 522 892 -26 1127 209 b 1192 628 1187 553 1191 588 z "},"ğ":{"ha":1207,"x_min":0,"x_max":0,"o":"m 764 1189 b 1015 1393 895 1189 991 1270 l 884 1393 b 780 1302 874 1339 831 1302 b 707 1393 730 1302 697 1341 l 577 1393 b 764 1189 556 1282 634 1189 z m 656 628 l 614 412 l 836 412 b 597 247 819 355 733 247 b 372 549 450 247 338 363 b 690 845 406 729 551 845 b 895 721 789 845 849 787 l 1098 941 b 753 1115 1031 1028 910 1109 b 76 549 429 1124 131 911 b 557 -26 25 216 216 -26 b 1182 522 892 -26 1127 209 b 1192 628 1187 553 1191 588 z "},"Ģ":{"ha":1207,"x_min":0,"x_max":0,"o":"m 656 628 l 614 412 l 836 412 b 597 247 819 355 733 247 b 372 549 450 247 338 363 b 690 845 406 729 551 845 b 895 721 789 845 849 787 l 1098 941 b 753 1115 1031 1028 910 1109 b 76 549 429 1124 131 911 b 557 -26 25 216 216 -26 b 1182 522 892 -26 1127 209 b 1192 628 1187 553 1191 588 z m 505 -81 b 363 -189 435 -81 374 -130 b 437 -279 354 -241 393 -279 b 440 -311 441 -286 444 -294 b 330 -388 429 -368 361 -388 b 397 -419 328 -399 353 -419 b 608 -221 501 -419 591 -323 b 505 -81 623 -135 576 -81 z "},"ģ":{"ha":1207,"x_min":0,"x_max":0,"o":"m 656 628 l 614 412 l 836 412 b 597 247 819 355 733 247 b 372 549 450 247 338 363 b 690 845 406 729 551 845 b 895 721 789 845 849 787 l 1098 941 b 753 1115 1031 1028 910 1109 b 76 549 429 1124 131 911 b 557 -26 25 216 216 -26 b 1182 522 892 -26 1127 209 b 1192 628 1187 553 1191 588 z m 505 -81 b 363 -189 435 -81 374 -130 b 437 -279 354 -241 393 -279 b 440 -311 441 -286 444 -294 b 330 -388 429 -368 361 -388 b 397 -419 328 -399 353 -419 b 608 -221 501 -419 591 -323 b 505 -81 623 -135 576 -81 z "},"Ġ":{"ha":1207,"x_min":0,"x_max":0,"o":"m 756 1193 b 892 1300 819 1193 881 1240 b 798 1409 903 1358 861 1409 b 663 1299 735 1409 673 1358 b 756 1193 651 1241 692 1193 z m 656 628 l 614 412 l 836 412 b 597 247 819 355 733 247 b 372 549 450 247 338 363 b 690 845 406 729 551 845 b 895 721 789 845 849 787 l 1098 941 b 753 1115 1031 1028 910 1109 b 76 549 429 1124 131 911 b 557 -26 25 216 216 -26 b 1182 522 892 -26 1127 209 b 1192 628 1187 553 1191 588 z "},"ġ":{"ha":1207,"x_min":0,"x_max":0,"o":"m 756 1193 b 892 1300 819 1193 881 1240 b 798 1409 903 1358 861 1409 b 663 1299 735 1409 673 1358 b 756 1193 651 1241 692 1193 z m 656 628 l 614 412 l 836 412 b 597 247 819 355 733 247 b 372 549 450 247 338 363 b 690 845 406 729 551 845 b 895 721 789 845 849 787 l 1098 941 b 753 1115 1031 1028 910 1109 b 76 549 429 1124 131 911 b 557 -26 25 216 216 -26 b 1182 522 892 -26 1127 209 b 1192 628 1187 553 1191 588 z "},"H":{"ha":1062,"x_min":0,"x_max":0,"o":"m 804 1093 l 724 683 l 446 683 l 525 1093 l 229 1093 l 16 0 l 313 0 l 393 412 l 671 412 l 591 0 l 888 0 l 1100 1093 z "},"h":{"ha":1062,"x_min":0,"x_max":0,"o":"m 804 1093 l 724 683 l 446 683 l 525 1093 l 229 1093 l 16 0 l 313 0 l 393 412 l 671 412 l 591 0 l 888 0 l 1100 1093 z "},"Ħ":{"ha":1062,"x_min":0,"x_max":0,"o":"m 1163 941 l 1071 941 l 1100 1093 l 804 1093 l 774 941 l 496 941 l 525 1093 l 229 1093 l 199 941 l 94 941 l 64 785 l 169 785 l 16 0 l 313 0 l 393 412 l 671 412 l 591 0 l 888 0 l 1040 785 l 1133 785 z m 724 683 l 446 683 l 465 785 l 744 785 z "},"ħ":{"ha":1062,"x_min":0,"x_max":0,"o":"m 1163 941 l 1071 941 l 1100 1093 l 804 1093 l 774 941 l 496 941 l 525 1093 l 229 1093 l 199 941 l 94 941 l 64 785 l 169 785 l 16 0 l 313 0 l 393 412 l 671 412 l 591 0 l 888 0 l 1040 785 l 1133 785 z m 724 683 l 446 683 l 465 785 l 744 785 z "},"I":{"ha":487,"x_min":0,"x_max":0,"o":"m 16 0 l 313 0 l 525 1093 l 229 1093 z "},"Í":{"ha":487,"x_min":0,"x_max":0,"o":"m 405 1183 l 610 1412 l 383 1412 l 222 1183 z m 16 0 l 313 0 l 525 1093 l 229 1093 z "},"í":{"ha":487,"x_min":0,"x_max":0,"o":"m 405 1183 l 610 1412 l 383 1412 l 222 1183 z m 16 0 l 313 0 l 525 1093 l 229 1093 z "},"Î":{"ha":487,"x_min":0,"x_max":0,"o":"m 110 1193 l 326 1193 l 423 1276 l 488 1193 l 683 1193 l 507 1392 l 359 1392 z m 16 0 l 313 0 l 525 1093 l 229 1093 z "},"î":{"ha":487,"x_min":0,"x_max":0,"o":"m 110 1193 l 326 1193 l 423 1276 l 488 1193 l 683 1193 l 507 1392 l 359 1392 z m 16 0 l 313 0 l 525 1093 l 229 1093 z "},"Ï":{"ha":487,"x_min":0,"x_max":0,"o":"m 233 1194 b 351 1287 288 1194 340 1236 b 269 1381 361 1337 323 1381 b 151 1287 215 1381 161 1337 b 233 1194 141 1236 179 1194 z m 560 1194 b 678 1287 614 1194 668 1236 b 596 1381 688 1337 650 1381 b 479 1287 542 1381 488 1337 b 560 1194 469 1236 506 1194 z m 16 0 l 313 0 l 525 1093 l 229 1093 z "},"ï":{"ha":487,"x_min":0,"x_max":0,"o":"m 233 1194 b 351 1287 288 1194 340 1236 b 269 1381 361 1337 323 1381 b 151 1287 215 1381 161 1337 b 233 1194 141 1236 179 1194 z m 560 1194 b 678 1287 614 1194 668 1236 b 596 1381 688 1337 650 1381 b 479 1287 542 1381 488 1337 b 560 1194 469 1236 506 1194 z m 16 0 l 313 0 l 525 1093 l 229 1093 z "},"İ":{"ha":487,"x_min":0,"x_max":0,"o":"m 396 1193 b 532 1300 458 1193 521 1240 b 438 1409 543 1358 501 1409 b 302 1299 375 1409 313 1358 b 396 1193 291 1241 332 1193 z m 16 0 l 313 0 l 525 1093 l 229 1093 z "},"Ì":{"ha":487,"x_min":0,"x_max":0,"o":"m 367 1183 l 549 1183 l 477 1412 l 250 1412 z m 16 0 l 313 0 l 525 1093 l 229 1093 z "},"ì":{"ha":487,"x_min":0,"x_max":0,"o":"m 367 1183 l 549 1183 l 477 1412 l 250 1412 z m 16 0 l 313 0 l 525 1093 l 229 1093 z "},"Ī":{"ha":487,"x_min":0,"x_max":0,"o":"m 180 1221 l 625 1221 l 651 1358 l 206 1358 z m 16 0 l 313 0 l 525 1093 l 229 1093 z "},"ī":{"ha":487,"x_min":0,"x_max":0,"o":"m 180 1221 l 625 1221 l 651 1358 l 206 1358 z m 16 0 l 313 0 l 525 1093 l 229 1093 z "},"Į":{"ha":487,"x_min":0,"x_max":0,"o":"m 218 -201 b 179 -157 191 -201 179 -180 b 313 0 179 -111 219 -69 l 525 1093 l 229 1093 l 16 0 l 122 0 b -23 -218 39 -43 -23 -123 b 195 -387 -23 -323 53 -387 b 326 -372 234 -387 277 -382 l 299 -189 b 218 -201 264 -197 233 -201 z "},"į":{"ha":487,"x_min":0,"x_max":0,"o":"m 218 -201 b 179 -157 191 -201 179 -180 b 313 0 179 -111 219 -69 l 525 1093 l 229 1093 l 16 0 l 122 0 b -23 -218 39 -43 -23 -123 b 195 -387 -23 -323 53 -387 b 326 -372 234 -387 277 -382 l 299 -189 b 218 -201 264 -197 233 -201 z "},"J":{"ha":806,"x_min":0,"x_max":0,"o":"m 214 -18 b 724 420 496 -18 669 134 l 850 1093 l 553 1093 l 428 422 b 245 256 408 317 343 256 b 135 300 197 256 161 272 l -33 91 b 214 -18 20 28 84 -18 z "},"j":{"ha":806,"x_min":0,"x_max":0,"o":"m 214 -18 b 724 420 496 -18 669 134 l 850 1093 l 553 1093 l 428 422 b 245 256 408 317 343 256 b 135 300 197 256 161 272 l -33 91 b 214 -18 20 28 84 -18 z "},"K":{"ha":1005,"x_min":0,"x_max":0,"o":"m 1109 1093 l 756 1093 l 446 689 l 525 1093 l 229 1093 l 16 0 l 313 0 l 402 461 l 597 0 l 916 0 l 681 548 z "},"k":{"ha":1005,"x_min":0,"x_max":0,"o":"m 1109 1093 l 756 1093 l 446 689 l 525 1093 l 229 1093 l 16 0 l 313 0 l 402 461 l 597 0 l 916 0 l 681 548 z "},"Ķ":{"ha":1005,"x_min":0,"x_max":0,"o":"m 1109 1093 l 756 1093 l 446 689 l 525 1093 l 229 1093 l 16 0 l 313 0 l 402 461 l 597 0 l 916 0 l 681 548 z m 404 -81 b 262 -189 334 -81 273 -130 b 336 -279 253 -241 292 -279 b 339 -311 340 -286 342 -294 b 229 -388 328 -368 260 -388 b 296 -419 227 -399 252 -419 b 507 -221 400 -419 490 -323 b 404 -81 522 -135 475 -81 z "},"ķ":{"ha":1005,"x_min":0,"x_max":0,"o":"m 1109 1093 l 756 1093 l 446 689 l 525 1093 l 229 1093 l 16 0 l 313 0 l 402 461 l 597 0 l 916 0 l 681 548 z m 404 -81 b 262 -189 334 -81 273 -130 b 336 -279 253 -241 292 -279 b 339 -311 340 -286 342 -294 b 229 -388 328 -368 260 -388 b 296 -419 227 -399 252 -419 b 507 -221 400 -419 490 -323 b 404 -81 522 -135 475 -81 z "},"L":{"ha":809,"x_min":0,"x_max":0,"o":"m 368 273 l 527 1093 l 229 1093 l 16 0 l 701 0 l 754 273 z "},"l":{"ha":809,"x_min":0,"x_max":0,"o":"m 368 273 l 527 1093 l 229 1093 l 16 0 l 701 0 l 754 273 z "},"Ĺ":{"ha":809,"x_min":0,"x_max":0,"o":"m 781 1412 l 553 1412 l 393 1183 l 575 1183 z m 527 1093 l 229 1093 l 16 0 l 701 0 l 754 273 l 368 273 z "},"ĺ":{"ha":809,"x_min":0,"x_max":0,"o":"m 781 1412 l 553 1412 l 393 1183 l 575 1183 z m 527 1093 l 229 1093 l 16 0 l 701 0 l 754 273 l 368 273 z "},"Ľ":{"ha":809,"x_min":0,"x_max":0,"o":"m 714 1161 l 604 842 l 760 842 l 904 1161 z m 527 1093 l 229 1093 l 16 0 l 701 0 l 754 273 l 368 273 z "},"ľ":{"ha":809,"x_min":0,"x_max":0,"o":"m 714 1161 l 604 842 l 760 842 l 904 1161 z m 527 1093 l 229 1093 l 16 0 l 701 0 l 754 273 l 368 273 z "},"Ļ":{"ha":809,"x_min":0,"x_max":0,"o":"m 368 273 l 527 1093 l 229 1093 l 16 0 l 701 0 l 754 273 z m 332 -81 b 191 -189 262 -81 201 -130 b 264 -279 181 -241 220 -279 b 267 -311 269 -286 271 -294 b 157 -388 256 -368 189 -388 b 224 -419 155 -399 180 -419 b 435 -221 328 -419 418 -323 b 332 -81 450 -135 404 -81 z "},"ļ":{"ha":809,"x_min":0,"x_max":0,"o":"m 368 273 l 527 1093 l 229 1093 l 16 0 l 701 0 l 754 273 z m 332 -81 b 191 -189 262 -81 201 -130 b 264 -279 181 -241 220 -279 b 267 -311 269 -286 271 -294 b 157 -388 256 -368 189 -388 b 224 -419 155 -399 180 -419 b 435 -221 328 -419 418 -323 b 332 -81 450 -135 404 -81 z "},"Ł":{"ha":809,"x_min":0,"x_max":0,"o":"m 368 273 l 421 548 l 559 630 l 600 841 l 463 759 l 527 1093 l 229 1093 l 125 558 l 17 494 l -24 284 l 84 349 l 16 0 l 701 0 l 754 273 z "},"ł":{"ha":809,"x_min":0,"x_max":0,"o":"m 368 273 l 421 548 l 559 630 l 600 841 l 463 759 l 527 1093 l 229 1093 l 125 558 l 17 494 l -24 284 l 84 349 l 16 0 l 701 0 l 754 273 z "},"M":{"ha":1325,"x_min":0,"x_max":0,"o":"m 1206 1103 l 653 475 l 363 1103 l 231 1103 l 16 0 l 313 0 l 395 418 l 580 18 l 581 18 l 936 422 l 854 0 l 1151 0 l 1365 1103 z "},"m":{"ha":1325,"x_min":0,"x_max":0,"o":"m 1206 1103 l 653 475 l 363 1103 l 231 1103 l 16 0 l 313 0 l 395 418 l 580 18 l 581 18 l 936 422 l 854 0 l 1151 0 l 1365 1103 z "},"N":{"ha":1097,"x_min":0,"x_max":0,"o":"m 839 1095 l 737 571 l 332 1104 l 231 1104 l 16 -1 l 312 -1 l 414 524 l 821 -11 l 921 -11 l 1136 1095 z "},"n":{"ha":1097,"x_min":0,"x_max":0,"o":"m 839 1095 l 737 571 l 332 1104 l 231 1104 l 16 -1 l 312 -1 l 414 524 l 821 -11 l 921 -11 l 1136 1095 z "},"Ń":{"ha":1097,"x_min":0,"x_max":0,"o":"m 916 1412 l 688 1412 l 528 1183 l 710 1183 z m 839 1095 l 737 571 l 332 1104 l 231 1104 l 16 -1 l 312 -1 l 414 524 l 821 -11 l 921 -11 l 1136 1095 z "},"ń":{"ha":1097,"x_min":0,"x_max":0,"o":"m 916 1412 l 688 1412 l 528 1183 l 710 1183 z m 839 1095 l 737 571 l 332 1104 l 231 1104 l 16 -1 l 312 -1 l 414 524 l 821 -11 l 921 -11 l 1136 1095 z "},"Ň":{"ha":1097,"x_min":0,"x_max":0,"o":"m 777 1193 l 1027 1392 l 810 1392 l 713 1309 l 648 1392 l 454 1392 l 629 1193 z m 839 1095 l 737 571 l 332 1104 l 231 1104 l 16 -1 l 312 -1 l 414 524 l 821 -11 l 921 -11 l 1136 1095 z "},"ň":{"ha":1097,"x_min":0,"x_max":0,"o":"m 777 1193 l 1027 1392 l 810 1392 l 713 1309 l 648 1392 l 454 1392 l 629 1193 z m 839 1095 l 737 571 l 332 1104 l 231 1104 l 16 -1 l 312 -1 l 414 524 l 821 -11 l 921 -11 l 1136 1095 z "},"Ņ":{"ha":1097,"x_min":0,"x_max":0,"o":"m 839 1095 l 737 571 l 332 1104 l 231 1104 l 16 -1 l 312 -1 l 414 524 l 821 -11 l 921 -11 l 1136 1095 z m 473 -81 b 332 -189 404 -81 342 -130 b 406 -279 322 -241 361 -279 b 408 -311 410 -286 412 -294 b 298 -388 397 -368 330 -388 b 366 -419 296 -399 321 -419 b 576 -221 469 -419 559 -323 b 473 -81 591 -135 545 -81 z "},"ņ":{"ha":1097,"x_min":0,"x_max":0,"o":"m 839 1095 l 737 571 l 332 1104 l 231 1104 l 16 -1 l 312 -1 l 414 524 l 821 -11 l 921 -11 l 1136 1095 z m 473 -81 b 332 -189 404 -81 342 -130 b 406 -279 322 -241 361 -279 b 408 -311 410 -286 412 -294 b 298 -388 397 -368 330 -388 b 366 -419 296 -399 321 -419 b 576 -221 469 -419 559 -323 b 473 -81 591 -135 545 -81 z "},"Ŋ":{"ha":1097,"x_min":0,"x_max":0,"o":"m 1136 1095 l 839 1095 l 737 571 l 332 1104 l 231 1104 l 16 -1 l 312 -1 l 414 524 l 678 176 l 636 -43 b 475 -238 618 -137 555 -197 l 611 -357 b 916 -39 772 -295 888 -181 l 922 -11 l 921 -10 z "},"ŋ":{"ha":1097,"x_min":0,"x_max":0,"o":"m 1136 1095 l 839 1095 l 737 571 l 332 1104 l 231 1104 l 16 -1 l 312 -1 l 414 524 l 678 176 l 636 -43 b 475 -238 618 -137 555 -197 l 611 -357 b 916 -39 772 -295 888 -181 l 922 -11 l 921 -10 z "},"Ñ":{"ha":1097,"x_min":0,"x_max":0,"o":"m 617 1284 b 816 1196 677 1284 702 1196 b 1042 1378 889 1196 985 1233 l 918 1419 b 831 1335 898 1372 869 1335 b 633 1422 772 1335 746 1422 b 406 1240 555 1422 462 1382 l 531 1200 b 617 1284 551 1246 578 1284 z m 839 1095 l 737 571 l 332 1104 l 231 1104 l 16 -1 l 312 -1 l 414 524 l 821 -11 l 921 -11 l 1136 1095 z "},"ñ":{"ha":1097,"x_min":0,"x_max":0,"o":"m 617 1284 b 816 1196 677 1284 702 1196 b 1042 1378 889 1196 985 1233 l 918 1419 b 831 1335 898 1372 869 1335 b 633 1422 772 1335 746 1422 b 406 1240 555 1422 462 1382 l 531 1200 b 617 1284 551 1246 578 1284 z m 839 1095 l 737 571 l 332 1104 l 231 1104 l 16 -1 l 312 -1 l 414 524 l 821 -11 l 921 -11 l 1136 1095 z "},"O":{"ha":1207,"x_min":0,"x_max":0,"o":"m 527 -24 b 1183 536 854 -42 1137 189 b 732 1109 1227 858 1044 1093 b 76 545 401 1128 121 891 b 527 -24 33 223 218 -7 z m 577 249 b 372 545 425 254 345 382 b 683 838 399 717 530 843 b 888 541 828 833 916 711 b 577 249 861 375 734 243 z "},"o":{"ha":1207,"x_min":0,"x_max":0,"o":"m 527 -24 b 1183 536 854 -42 1137 189 b 732 1109 1227 858 1044 1093 b 76 545 401 1128 121 891 b 527 -24 33 223 218 -7 z m 577 249 b 372 545 425 254 345 382 b 683 838 399 717 530 843 b 888 541 828 833 916 711 b 577 249 861 375 734 243 z "},"Ó":{"ha":1207,"x_min":0,"x_max":0,"o":"m 766 1183 l 971 1412 l 744 1412 l 583 1183 z m 527 -24 b 1183 536 854 -42 1137 189 b 732 1109 1227 858 1044 1093 b 76 545 401 1128 121 891 b 527 -24 33 223 218 -7 z m 577 249 b 372 545 425 254 345 382 b 683 838 399 717 530 843 b 888 541 828 833 916 711 b 577 249 861 375 734 243 z "},"ó":{"ha":1207,"x_min":0,"x_max":0,"o":"m 766 1183 l 971 1412 l 744 1412 l 583 1183 z m 527 -24 b 1183 536 854 -42 1137 189 b 732 1109 1227 858 1044 1093 b 76 545 401 1128 121 891 b 527 -24 33 223 218 -7 z m 577 249 b 372 545 425 254 345 382 b 683 838 399 717 530 843 b 888 541 828 833 916 711 b 577 249 861 375 734 243 z "},"Ô":{"ha":1207,"x_min":0,"x_max":0,"o":"m 471 1193 l 687 1193 l 784 1276 l 849 1193 l 1044 1193 l 868 1392 l 720 1392 z m 527 -24 b 1183 536 854 -42 1137 189 b 732 1109 1227 858 1044 1093 b 76 545 401 1128 121 891 b 527 -24 33 223 218 -7 z m 577 249 b 372 545 425 254 345 382 b 683 838 399 717 530 843 b 888 541 828 833 916 711 b 577 249 861 375 734 243 z "},"ô":{"ha":1207,"x_min":0,"x_max":0,"o":"m 471 1193 l 687 1193 l 784 1276 l 849 1193 l 1044 1193 l 868 1392 l 720 1392 z m 527 -24 b 1183 536 854 -42 1137 189 b 732 1109 1227 858 1044 1093 b 76 545 401 1128 121 891 b 527 -24 33 223 218 -7 z m 577 249 b 372 545 425 254 345 382 b 683 838 399 717 530 843 b 888 541 828 833 916 711 b 577 249 861 375 734 243 z "},"Ö":{"ha":1207,"x_min":0,"x_max":0,"o":"m 594 1194 b 711 1287 648 1194 701 1236 b 630 1381 722 1337 684 1381 b 512 1287 576 1381 522 1337 b 594 1194 502 1236 540 1194 z m 921 1194 b 1039 1287 975 1194 1029 1236 b 957 1381 1048 1337 1011 1381 b 840 1287 903 1381 849 1337 b 921 1194 829 1236 867 1194 z m 527 -24 b 1183 536 854 -42 1137 189 b 732 1109 1227 858 1044 1093 b 76 545 401 1128 121 891 b 527 -24 33 223 218 -7 z m 577 249 b 372 545 425 254 345 382 b 683 838 399 717 530 843 b 888 541 828 833 916 711 b 577 249 861 375 734 243 z "},"ö":{"ha":1207,"x_min":0,"x_max":0,"o":"m 594 1194 b 711 1287 648 1194 701 1236 b 630 1381 722 1337 684 1381 b 512 1287 576 1381 522 1337 b 594 1194 502 1236 540 1194 z m 921 1194 b 1039 1287 975 1194 1029 1236 b 957 1381 1048 1337 1011 1381 b 840 1287 903 1381 849 1337 b 921 1194 829 1236 867 1194 z m 527 -24 b 1183 536 854 -42 1137 189 b 732 1109 1227 858 1044 1093 b 76 545 401 1128 121 891 b 527 -24 33 223 218 -7 z m 577 249 b 372 545 425 254 345 382 b 683 838 399 717 530 843 b 888 541 828 833 916 711 b 577 249 861 375 734 243 z "},"Ò":{"ha":1207,"x_min":0,"x_max":0,"o":"m 727 1183 l 909 1183 l 838 1412 l 610 1412 z m 527 -24 b 1183 536 854 -42 1137 189 b 732 1109 1227 858 1044 1093 b 76 545 401 1128 121 891 b 527 -24 33 223 218 -7 z m 577 249 b 372 545 425 254 345 382 b 683 838 399 717 530 843 b 888 541 828 833 916 711 b 577 249 861 375 734 243 z "},"ò":{"ha":1207,"x_min":0,"x_max":0,"o":"m 727 1183 l 909 1183 l 838 1412 l 610 1412 z m 527 -24 b 1183 536 854 -42 1137 189 b 732 1109 1227 858 1044 1093 b 76 545 401 1128 121 891 b 527 -24 33 223 218 -7 z m 577 249 b 372 545 425 254 345 382 b 683 838 399 717 530 843 b 888 541 828 833 916 711 b 577 249 861 375 734 243 z "},"Ő":{"ha":1207,"x_min":0,"x_max":0,"o":"m 471 1183 l 633 1183 l 811 1412 l 608 1412 z m 732 1183 l 904 1183 l 1145 1412 l 918 1412 z m 527 -24 b 1183 536 854 -42 1137 189 b 732 1109 1227 858 1044 1093 b 76 545 401 1128 121 891 b 527 -24 33 223 218 -7 z m 577 249 b 372 545 425 254 345 382 b 683 838 399 717 530 843 b 888 541 828 833 916 711 b 577 249 861 375 734 243 z "},"ő":{"ha":1207,"x_min":0,"x_max":0,"o":"m 471 1183 l 633 1183 l 811 1412 l 608 1412 z m 732 1183 l 904 1183 l 1145 1412 l 918 1412 z m 527 -24 b 1183 536 854 -42 1137 189 b 732 1109 1227 858 1044 1093 b 76 545 401 1128 121 891 b 527 -24 33 223 218 -7 z m 577 249 b 372 545 425 254 345 382 b 683 838 399 717 530 843 b 888 541 828 833 916 711 b 577 249 861 375 734 243 z "},"Ō":{"ha":1207,"x_min":0,"x_max":0,"o":"m 540 1221 l 985 1221 l 1011 1358 l 566 1358 z m 527 -24 b 1183 536 854 -42 1137 189 b 732 1109 1227 858 1044 1093 b 76 545 401 1128 121 891 b 527 -24 33 223 218 -7 z m 577 249 b 372 545 425 254 345 382 b 683 838 399 717 530 843 b 888 541 828 833 916 711 b 577 249 861 375 734 243 z "},"ō":{"ha":1207,"x_min":0,"x_max":0,"o":"m 540 1221 l 985 1221 l 1011 1358 l 566 1358 z m 527 -24 b 1183 536 854 -42 1137 189 b 732 1109 1227 858 1044 1093 b 76 545 401 1128 121 891 b 527 -24 33 223 218 -7 z m 577 249 b 372 545 425 254 345 382 b 683 838 399 717 530 843 b 888 541 828 833 916 711 b 577 249 861 375 734 243 z "},"Ø":{"ha":1207,"x_min":0,"x_max":0,"o":"m 1267 1134 l 1035 1134 l 959 1048 b 732 1109 895 1084 818 1105 b 76 545 401 1128 121 891 b 165 151 55 387 89 251 l -5 -41 l 228 -41 l 298 38 b 527 -24 363 2 440 -20 b 1183 536 854 -42 1137 189 b 1092 936 1205 696 1171 835 z m 372 545 b 683 838 399 717 530 843 b 760 823 711 837 736 831 l 380 394 b 372 545 366 438 363 490 z m 888 541 b 577 249 861 375 734 243 b 498 264 548 250 522 255 l 878 695 b 888 541 893 651 897 599 z "},"ø":{"ha":1207,"x_min":0,"x_max":0,"o":"m 1267 1134 l 1035 1134 l 959 1048 b 732 1109 895 1084 818 1105 b 76 545 401 1128 121 891 b 165 151 55 387 89 251 l -5 -41 l 228 -41 l 298 38 b 527 -24 363 2 440 -20 b 1183 536 854 -42 1137 189 b 1092 936 1205 696 1171 835 z m 372 545 b 683 838 399 717 530 843 b 760 823 711 837 736 831 l 380 394 b 372 545 366 438 363 490 z m 888 541 b 577 249 861 375 734 243 b 498 264 548 250 522 255 l 878 695 b 888 541 893 651 897 599 z "},"Õ":{"ha":1207,"x_min":0,"x_max":0,"o":"m 586 1200 b 672 1284 606 1246 633 1284 b 871 1196 732 1284 757 1196 b 1097 1378 944 1196 1040 1233 l 973 1419 b 886 1335 953 1372 924 1335 b 688 1422 827 1335 801 1422 b 461 1240 610 1422 517 1382 z m 527 -24 b 1183 536 854 -42 1137 189 b 732 1109 1227 858 1044 1093 b 76 545 401 1128 121 891 b 527 -24 33 223 218 -7 z m 577 249 b 372 545 425 254 345 382 b 683 838 399 717 530 843 b 888 541 828 833 916 711 b 577 249 861 375 734 243 z "},"õ":{"ha":1207,"x_min":0,"x_max":0,"o":"m 586 1200 b 672 1284 606 1246 633 1284 b 871 1196 732 1284 757 1196 b 1097 1378 944 1196 1040 1233 l 973 1419 b 886 1335 953 1372 924 1335 b 688 1422 827 1335 801 1422 b 461 1240 610 1422 517 1382 z m 527 -24 b 1183 536 854 -42 1137 189 b 732 1109 1227 858 1044 1093 b 76 545 401 1128 121 891 b 527 -24 33 223 218 -7 z m 577 249 b 372 545 425 254 345 382 b 683 838 399 717 530 843 b 888 541 828 833 916 711 b 577 249 861 375 734 243 z "},"Œ":{"ha":1725,"x_min":0,"x_max":0,"o":"m 1738 823 l 1791 1093 l 1110 1093 l 1078 926 b 732 1109 1012 1036 895 1101 b 76 545 398 1127 121 891 b 527 -24 33 223 218 -7 b 920 113 682 -33 817 18 l 898 0 l 1579 0 l 1632 272 l 1247 272 l 1278 429 l 1589 429 l 1636 671 l 1324 671 l 1354 823 z m 888 542 b 577 249 861 374 734 243 b 372 545 425 254 345 382 b 683 838 399 717 530 843 b 888 542 828 833 916 711 z "},"œ":{"ha":1725,"x_min":0,"x_max":0,"o":"m 1738 823 l 1791 1093 l 1110 1093 l 1078 926 b 732 1109 1012 1036 895 1101 b 76 545 398 1127 121 891 b 527 -24 33 223 218 -7 b 920 113 682 -33 817 18 l 898 0 l 1579 0 l 1632 272 l 1247 272 l 1278 429 l 1589 429 l 1636 671 l 1324 671 l 1354 823 z m 888 542 b 577 249 861 374 734 243 b 372 545 425 254 345 382 b 683 838 399 717 530 843 b 888 542 828 833 916 711 z "},"P":{"ha":918,"x_min":0,"x_max":0,"o":"m 16 0 l 313 0 l 376 322 l 455 322 b 945 700 732 322 912 469 b 605 1093 981 945 821 1093 l 229 1093 z m 507 589 l 427 590 l 473 825 l 553 825 b 669 702 633 825 680 776 b 507 589 657 633 602 589 z "},"p":{"ha":918,"x_min":0,"x_max":0,"o":"m 16 0 l 313 0 l 376 322 l 455 322 b 945 700 732 322 912 469 b 605 1093 981 945 821 1093 l 229 1093 z m 507 589 l 427 590 l 473 825 l 553 825 b 669 702 633 825 680 776 b 507 589 657 633 602 589 z "},"Þ":{"ha":967,"x_min":0,"x_max":0,"o":"m 16 0 l 313 0 l 348 180 l 473 180 b 947 550 739 180 916 338 b 618 927 983 799 802 927 l 493 927 l 525 1093 l 229 1093 z m 397 435 l 444 673 l 557 673 b 656 551 619 673 667 627 b 509 435 646 479 591 435 z "},"þ":{"ha":967,"x_min":0,"x_max":0,"o":"m 16 0 l 313 0 l 348 180 l 473 180 b 947 550 739 180 916 338 b 618 927 983 799 802 927 l 493 927 l 525 1093 l 229 1093 z m 397 435 l 444 673 l 557 673 b 656 551 619 673 667 627 b 509 435 646 479 591 435 z "},"Q":{"ha":1234,"x_min":0,"x_max":0,"o":"m 1183 536 b 732 1109 1227 858 1044 1093 b 76 545 401 1128 121 891 b 527 -24 33 223 218 -7 b 628 -22 562 -26 595 -25 b 1010 -205 709 -113 819 -191 l 1147 35 b 910 81 1058 38 977 56 b 1183 536 1054 178 1157 338 z m 577 249 b 372 545 425 254 345 382 b 683 838 399 717 530 843 b 888 541 828 833 916 711 b 577 249 861 375 734 243 z "},"q":{"ha":1234,"x_min":0,"x_max":0,"o":"m 1183 536 b 732 1109 1227 858 1044 1093 b 76 545 401 1128 121 891 b 527 -24 33 223 218 -7 b 628 -22 562 -26 595 -25 b 1010 -205 709 -113 819 -191 l 1147 35 b 910 81 1058 38 977 56 b 1183 536 1054 178 1157 338 z m 577 249 b 372 545 425 254 345 382 b 683 838 399 717 530 843 b 888 541 828 833 916 711 b 577 249 861 375 734 243 z "},"R":{"ha":1004,"x_min":0,"x_max":0,"o":"m 936 718 b 595 1093 975 947 817 1093 l 229 1093 l 18 0 l 313 0 l 395 419 l 595 0 l 915 0 l 688 427 b 936 718 817 467 912 576 z m 473 829 l 552 829 b 646 719 614 829 656 782 b 511 616 637 656 583 614 l 432 616 z "},"r":{"ha":1004,"x_min":0,"x_max":0,"o":"m 936 718 b 595 1093 975 947 817 1093 l 229 1093 l 18 0 l 313 0 l 395 419 l 595 0 l 915 0 l 688 427 b 936 718 817 467 912 576 z m 473 829 l 552 829 b 646 719 614 829 656 782 b 511 616 637 656 583 614 l 432 616 z "},"Ŕ":{"ha":1004,"x_min":0,"x_max":0,"o":"m 869 1412 l 642 1412 l 481 1183 l 664 1183 z m 936 718 b 595 1093 975 947 817 1093 l 229 1093 l 18 0 l 313 0 l 395 419 l 595 0 l 915 0 l 688 427 b 936 718 817 467 912 576 z m 473 829 l 552 829 b 646 719 614 829 656 782 b 511 616 637 656 583 614 l 432 616 z "},"ŕ":{"ha":1004,"x_min":0,"x_max":0,"o":"m 869 1412 l 642 1412 l 481 1183 l 664 1183 z m 936 718 b 595 1093 975 947 817 1093 l 229 1093 l 18 0 l 313 0 l 395 419 l 595 0 l 915 0 l 688 427 b 936 718 817 467 912 576 z m 473 829 l 552 829 b 646 719 614 829 656 782 b 511 616 637 656 583 614 l 432 616 z "},"Ř":{"ha":1004,"x_min":0,"x_max":0,"o":"m 731 1193 l 981 1392 l 764 1392 l 667 1309 l 602 1392 l 408 1392 l 583 1193 z m 595 1093 l 229 1093 l 18 0 l 313 0 l 395 419 l 595 0 l 915 0 l 688 427 b 936 718 817 467 912 576 b 595 1093 975 947 817 1093 z m 473 829 l 552 829 b 646 719 614 829 656 782 b 511 616 637 656 583 614 l 432 616 z "},"ř":{"ha":1004,"x_min":0,"x_max":0,"o":"m 731 1193 l 981 1392 l 764 1392 l 667 1309 l 602 1392 l 408 1392 l 583 1193 z m 595 1093 l 229 1093 l 18 0 l 313 0 l 395 419 l 595 0 l 915 0 l 688 427 b 936 718 817 467 912 576 b 595 1093 975 947 817 1093 z m 473 829 l 552 829 b 646 719 614 829 656 782 b 511 616 637 656 583 614 l 432 616 z "},"Ŗ":{"ha":1004,"x_min":0,"x_max":0,"o":"m 936 718 b 595 1093 975 947 817 1093 l 229 1093 l 18 0 l 313 0 l 395 419 l 595 0 l 915 0 l 688 427 b 936 718 817 467 912 576 z m 473 829 l 552 829 b 646 719 614 829 656 782 b 511 616 637 656 583 614 l 432 616 z m 404 -81 b 262 -189 334 -81 273 -130 b 336 -279 252 -241 292 -279 b 338 -311 340 -286 342 -294 b 228 -388 327 -368 260 -388 b 296 -419 227 -399 252 -419 b 507 -221 399 -419 490 -323 b 404 -81 521 -135 475 -81 z "},"ŗ":{"ha":1004,"x_min":0,"x_max":0,"o":"m 936 718 b 595 1093 975 947 817 1093 l 229 1093 l 18 0 l 313 0 l 395 419 l 595 0 l 915 0 l 688 427 b 936 718 817 467 912 576 z m 473 829 l 552 829 b 646 719 614 829 656 782 b 511 616 637 656 583 614 l 432 616 z m 404 -81 b 262 -189 334 -81 273 -130 b 336 -279 252 -241 292 -279 b 338 -311 340 -286 342 -294 b 228 -388 327 -368 260 -388 b 296 -419 227 -399 252 -419 b 507 -221 399 -419 490 -323 b 404 -81 521 -135 475 -81 z "},"S":{"ha":860,"x_min":0,"x_max":0,"o":"m 379 -15 b 798 287 610 -15 765 106 b 599 639 828 448 739 555 b 443 780 524 684 432 724 b 536 844 449 814 484 844 b 683 754 598 844 656 808 l 876 920 b 555 1109 831 1029 705 1109 b 161 830 364 1109 195 994 b 344 484 128 674 214 564 b 503 317 428 433 517 382 b 395 250 493 267 434 250 b 195 374 314 250 239 299 l -2 203 b 379 -15 53 78 183 -15 z "},"s":{"ha":860,"x_min":0,"x_max":0,"o":"m 379 -15 b 798 287 610 -15 765 106 b 599 639 828 448 739 555 b 443 780 524 684 432 724 b 536 844 449 814 484 844 b 683 754 598 844 656 808 l 876 920 b 555 1109 831 1029 705 1109 b 161 830 364 1109 195 994 b 344 484 128 674 214 564 b 503 317 428 433 517 382 b 395 250 493 267 434 250 b 195 374 314 250 239 299 l -2 203 b 379 -15 53 78 183 -15 z "},"Ś":{"ha":860,"x_min":0,"x_max":0,"o":"m 596 1183 l 802 1412 l 574 1412 l 414 1183 z m 379 -15 b 798 287 610 -15 765 106 b 599 639 828 448 739 555 b 443 780 524 684 432 724 b 536 844 449 814 484 844 b 683 754 598 844 656 808 l 876 920 b 555 1109 831 1029 705 1109 b 161 830 364 1109 195 994 b 344 484 128 674 214 564 b 503 317 428 433 517 382 b 395 250 493 267 434 250 b 195 374 314 250 239 299 l -2 203 b 379 -15 53 78 183 -15 z "},"ś":{"ha":860,"x_min":0,"x_max":0,"o":"m 596 1183 l 802 1412 l 574 1412 l 414 1183 z m 379 -15 b 798 287 610 -15 765 106 b 599 639 828 448 739 555 b 443 780 524 684 432 724 b 536 844 449 814 484 844 b 683 754 598 844 656 808 l 876 920 b 555 1109 831 1029 705 1109 b 161 830 364 1109 195 994 b 344 484 128 674 214 564 b 503 317 428 433 517 382 b 395 250 493 267 434 250 b 195 374 314 250 239 299 l -2 203 b 379 -15 53 78 183 -15 z "},"Š":{"ha":860,"x_min":0,"x_max":0,"o":"m 913 1392 l 696 1392 l 600 1309 l 534 1392 l 340 1392 l 515 1193 l 663 1193 z m 379 -15 b 798 287 610 -15 765 106 b 599 639 828 448 739 555 b 443 780 524 684 432 724 b 536 844 449 814 484 844 b 683 754 598 844 656 808 l 876 920 b 555 1109 831 1029 705 1109 b 161 830 364 1109 195 994 b 344 484 128 674 214 564 b 503 317 428 433 517 382 b 395 250 493 267 434 250 b 195 374 314 250 239 299 l -2 203 b 379 -15 53 78 183 -15 z "},"š":{"ha":860,"x_min":0,"x_max":0,"o":"m 913 1392 l 696 1392 l 600 1309 l 534 1392 l 340 1392 l 515 1193 l 663 1193 z m 379 -15 b 798 287 610 -15 765 106 b 599 639 828 448 739 555 b 443 780 524 684 432 724 b 536 844 449 814 484 844 b 683 754 598 844 656 808 l 876 920 b 555 1109 831 1029 705 1109 b 161 830 364 1109 195 994 b 344 484 128 674 214 564 b 503 317 428 433 517 382 b 395 250 493 267 434 250 b 195 374 314 250 239 299 l -2 203 b 379 -15 53 78 183 -15 z "},"Ş":{"ha":860,"x_min":0,"x_max":0,"o":"m 599 639 b 443 780 524 684 432 724 b 536 844 449 814 484 844 b 683 754 598 844 656 808 l 876 920 b 555 1109 831 1029 705 1109 b 161 830 364 1109 195 994 b 344 484 128 674 214 564 b 503 317 428 433 517 382 b 395 250 493 267 434 250 b 195 374 314 250 239 299 l -2 203 b 296 -9 45 97 146 14 l 202 -113 l 231 -154 b 264 -149 244 -151 255 -149 b 304 -180 300 -149 305 -169 b 117 -233 300 -210 249 -233 l 172 -389 b 490 -174 334 -391 480 -286 b 393 -58 496 -109 454 -58 b 376 -59 387 -58 382 -59 l 419 -14 b 798 287 628 -1 767 117 b 599 639 828 448 739 555 z "},"ş":{"ha":860,"x_min":0,"x_max":0,"o":"m 599 639 b 443 780 524 684 432 724 b 536 844 449 814 484 844 b 683 754 598 844 656 808 l 876 920 b 555 1109 831 1029 705 1109 b 161 830 364 1109 195 994 b 344 484 128 674 214 564 b 503 317 428 433 517 382 b 395 250 493 267 434 250 b 195 374 314 250 239 299 l -2 203 b 296 -9 45 97 146 14 l 202 -113 l 231 -154 b 264 -149 244 -151 255 -149 b 304 -180 300 -149 305 -169 b 117 -233 300 -210 249 -233 l 172 -389 b 490 -174 334 -391 480 -286 b 393 -58 496 -109 454 -58 b 376 -59 387 -58 382 -59 l 419 -14 b 798 287 628 -1 767 117 b 599 639 828 448 739 555 z "},"Ș":{"ha":860,"x_min":0,"x_max":0,"o":"m 379 -15 b 798 287 610 -15 765 106 b 599 639 828 448 739 555 b 443 780 524 684 432 724 b 536 844 449 814 484 844 b 683 754 598 844 656 808 l 876 920 b 555 1109 831 1029 705 1109 b 161 830 364 1109 195 994 b 344 484 128 674 214 564 b 503 317 428 433 517 382 b 395 250 493 267 434 250 b 195 374 314 250 239 299 l -2 203 b 379 -15 53 78 183 -15 z m 228 -419 b 439 -221 332 -419 422 -323 b 336 -81 453 -135 407 -81 b 194 -189 266 -81 205 -130 b 268 -279 184 -241 224 -279 b 271 -311 272 -286 274 -294 b 160 -388 259 -368 192 -388 b 228 -419 159 -399 184 -419 z "},"ș":{"ha":860,"x_min":0,"x_max":0,"o":"m 379 -15 b 798 287 610 -15 765 106 b 599 639 828 448 739 555 b 443 780 524 684 432 724 b 536 844 449 814 484 844 b 683 754 598 844 656 808 l 876 920 b 555 1109 831 1029 705 1109 b 161 830 364 1109 195 994 b 344 484 128 674 214 564 b 503 317 428 433 517 382 b 395 250 493 267 434 250 b 195 374 314 250 239 299 l -2 203 b 379 -15 53 78 183 -15 z m 228 -419 b 439 -221 332 -419 422 -323 b 336 -81 453 -135 407 -81 b 194 -189 266 -81 205 -130 b 268 -279 184 -241 224 -279 b 271 -311 272 -286 274 -294 b 160 -388 259 -368 192 -388 b 228 -419 159 -399 184 -419 z "},"ß":{"ha":1316,"x_min":0,"x_max":0,"o":"m 1093 663 b 954 724 1049 689 999 712 l 1183 975 b 741 1124 1088 1067 939 1124 b 143 652 421 1124 206 979 l 16 0 l 313 0 l 439 652 b 685 877 469 802 555 877 b 795 852 726 877 765 870 l 587 601 b 846 487 650 589 777 530 b 975 309 948 426 986 366 b 864 229 966 258 925 229 b 673 348 783 229 704 280 l 473 184 b 827 -32 526 50 659 -32 b 1270 318 1035 -32 1235 96 b 1093 663 1293 469 1225 581 z "},"ẞ":{"ha":1316,"x_min":0,"x_max":0,"o":"m 1093 663 b 954 724 1049 689 999 712 l 1183 975 b 741 1124 1088 1067 939 1124 b 143 652 421 1124 206 979 l 16 0 l 313 0 l 439 652 b 685 877 469 802 555 877 b 795 852 726 877 765 870 l 587 601 b 846 487 650 589 777 530 b 975 309 948 426 986 366 b 864 229 966 258 925 229 b 673 348 783 229 704 280 l 473 184 b 827 -32 526 50 659 -32 b 1270 318 1035 -32 1235 96 b 1093 663 1293 469 1225 581 z "},"Ə":{"ha":1215,"x_min":0,"x_max":0,"o":"m 552 -8 b 1194 545 907 -8 1152 237 b 728 1105 1240 881 1021 1105 b 332 975 602 1105 442 1063 l 471 794 b 681 850 545 837 629 850 b 920 665 806 850 897 770 l 111 665 b 75 549 98 642 83 593 b 552 -8 28 303 151 -8 z m 587 242 b 347 427 469 242 374 316 l 873 427 b 587 242 806 309 699 242 z "},"ə":{"ha":1215,"x_min":0,"x_max":0,"o":"m 552 -8 b 1194 545 907 -8 1152 237 b 728 1105 1240 881 1021 1105 b 332 975 602 1105 442 1063 l 471 794 b 681 850 545 837 629 850 b 920 665 806 850 897 770 l 111 665 b 75 549 98 642 83 593 b 552 -8 28 303 151 -8 z m 587 242 b 347 427 469 242 374 316 l 873 427 b 587 242 806 309 699 242 z "},"T":{"ha":840,"x_min":0,"x_max":0,"o":"m 945 1093 l 162 1093 l 110 822 l 353 822 l 193 0 l 490 0 l 650 822 l 892 822 z "},"t":{"ha":840,"x_min":0,"x_max":0,"o":"m 945 1093 l 162 1093 l 110 822 l 353 822 l 193 0 l 490 0 l 650 822 l 892 822 z "},"Ŧ":{"ha":840,"x_min":0,"x_max":0,"o":"m 892 822 l 945 1093 l 162 1093 l 110 822 l 353 822 l 315 625 l 165 625 l 136 469 l 284 469 l 193 0 l 490 0 l 581 469 l 730 469 l 760 625 l 612 625 l 650 822 z "},"ŧ":{"ha":840,"x_min":0,"x_max":0,"o":"m 892 822 l 945 1093 l 162 1093 l 110 822 l 353 822 l 315 625 l 165 625 l 136 469 l 284 469 l 193 0 l 490 0 l 581 469 l 730 469 l 760 625 l 612 625 l 650 822 z "},"Ť":{"ha":840,"x_min":0,"x_max":0,"o":"m 649 1193 l 899 1392 l 682 1392 l 585 1309 l 520 1392 l 326 1392 l 500 1193 z m 945 1093 l 162 1093 l 110 822 l 353 822 l 193 0 l 490 0 l 650 822 l 892 822 z "},"ť":{"ha":840,"x_min":0,"x_max":0,"o":"m 649 1193 l 899 1392 l 682 1392 l 585 1309 l 520 1392 l 326 1392 l 500 1193 z m 945 1093 l 162 1093 l 110 822 l 353 822 l 193 0 l 490 0 l 650 822 l 892 822 z "},"Ţ":{"ha":840,"x_min":0,"x_max":0,"o":"m 945 1093 l 162 1093 l 110 822 l 353 822 l 193 0 l 289 0 l 188 -113 l 216 -154 b 250 -149 230 -151 241 -149 b 290 -180 286 -149 291 -169 b 103 -233 286 -210 235 -233 l 157 -389 b 476 -174 320 -391 466 -286 b 378 -58 482 -109 439 -58 b 362 -59 372 -58 368 -59 l 418 0 l 490 0 l 650 822 l 892 822 z "},"ţ":{"ha":840,"x_min":0,"x_max":0,"o":"m 945 1093 l 162 1093 l 110 822 l 353 822 l 193 0 l 289 0 l 188 -113 l 216 -154 b 250 -149 230 -151 241 -149 b 290 -180 286 -149 291 -169 b 103 -233 286 -210 235 -233 l 157 -389 b 476 -174 320 -391 466 -286 b 378 -58 482 -109 439 -58 b 362 -59 372 -58 368 -59 l 418 0 l 490 0 l 650 822 l 892 822 z "},"Ț":{"ha":840,"x_min":0,"x_max":0,"o":"m 945 1093 l 162 1093 l 110 822 l 353 822 l 193 0 l 490 0 l 650 822 l 892 822 z m 321 -81 b 180 -189 252 -81 191 -130 b 254 -279 170 -241 210 -279 b 256 -311 258 -286 260 -294 b 146 -388 245 -368 178 -388 b 214 -419 144 -399 170 -419 b 425 -221 317 -419 408 -323 b 321 -81 439 -135 393 -81 z "},"ț":{"ha":840,"x_min":0,"x_max":0,"o":"m 945 1093 l 162 1093 l 110 822 l 353 822 l 193 0 l 490 0 l 650 822 l 892 822 z m 321 -81 b 180 -189 252 -81 191 -130 b 254 -279 170 -241 210 -279 b 256 -311 258 -286 260 -294 b 146 -388 245 -368 178 -388 b 214 -419 144 -399 170 -419 b 425 -221 317 -419 408 -323 b 321 -81 439 -135 393 -81 z "},"U":{"ha":1042,"x_min":0,"x_max":0,"o":"m 458 -31 b 960 421 705 -31 903 132 l 1090 1093 l 793 1093 l 663 422 b 501 247 646 334 597 247 b 385 422 416 247 365 315 l 515 1093 l 219 1093 l 88 421 b 458 -31 41 175 182 -31 z "},"u":{"ha":1042,"x_min":0,"x_max":0,"o":"m 458 -31 b 960 421 705 -31 903 132 l 1090 1093 l 793 1093 l 663 422 b 501 247 646 334 597 247 b 385 422 416 247 365 315 l 515 1093 l 219 1093 l 88 421 b 458 -31 41 175 182 -31 z "},"Ú":{"ha":1042,"x_min":0,"x_max":0,"o":"m 682 1183 l 888 1412 l 661 1412 l 500 1183 z m 458 -31 b 960 421 705 -31 903 132 l 1090 1093 l 793 1093 l 663 422 b 501 247 646 334 597 247 b 385 422 416 247 365 315 l 515 1093 l 219 1093 l 88 421 b 458 -31 41 175 182 -31 z "},"ú":{"ha":1042,"x_min":0,"x_max":0,"o":"m 682 1183 l 888 1412 l 661 1412 l 500 1183 z m 458 -31 b 960 421 705 -31 903 132 l 1090 1093 l 793 1093 l 663 422 b 501 247 646 334 597 247 b 385 422 416 247 365 315 l 515 1093 l 219 1093 l 88 421 b 458 -31 41 175 182 -31 z "},"Û":{"ha":1042,"x_min":0,"x_max":0,"o":"m 387 1193 l 604 1193 l 701 1276 l 766 1193 l 960 1193 l 785 1392 l 636 1392 z m 458 -31 b 960 421 705 -31 903 132 l 1090 1093 l 793 1093 l 663 422 b 501 247 646 334 597 247 b 385 422 416 247 365 315 l 515 1093 l 219 1093 l 88 421 b 458 -31 41 175 182 -31 z "},"û":{"ha":1042,"x_min":0,"x_max":0,"o":"m 387 1193 l 604 1193 l 701 1276 l 766 1193 l 960 1193 l 785 1392 l 636 1392 z m 458 -31 b 960 421 705 -31 903 132 l 1090 1093 l 793 1093 l 663 422 b 501 247 646 334 597 247 b 385 422 416 247 365 315 l 515 1093 l 219 1093 l 88 421 b 458 -31 41 175 182 -31 z "},"Ü":{"ha":1042,"x_min":0,"x_max":0,"o":"m 511 1194 b 628 1287 565 1194 618 1236 b 547 1381 638 1337 601 1381 b 429 1287 492 1381 439 1337 b 511 1194 418 1236 456 1194 z m 838 1194 b 956 1287 892 1194 945 1236 b 873 1381 965 1337 928 1381 b 756 1287 819 1381 766 1337 b 838 1194 746 1236 783 1194 z m 458 -31 b 960 421 705 -31 903 132 l 1090 1093 l 793 1093 l 663 422 b 501 247 646 334 597 247 b 385 422 416 247 365 315 l 515 1093 l 219 1093 l 88 421 b 458 -31 41 175 182 -31 z "},"ü":{"ha":1042,"x_min":0,"x_max":0,"o":"m 511 1194 b 628 1287 565 1194 618 1236 b 547 1381 638 1337 601 1381 b 429 1287 492 1381 439 1337 b 511 1194 418 1236 456 1194 z m 838 1194 b 956 1287 892 1194 945 1236 b 873 1381 965 1337 928 1381 b 756 1287 819 1381 766 1337 b 838 1194 746 1236 783 1194 z m 458 -31 b 960 421 705 -31 903 132 l 1090 1093 l 793 1093 l 663 422 b 501 247 646 334 597 247 b 385 422 416 247 365 315 l 515 1093 l 219 1093 l 88 421 b 458 -31 41 175 182 -31 z "},"Ù":{"ha":1042,"x_min":0,"x_max":0,"o":"m 644 1183 l 827 1183 l 755 1412 l 528 1412 z m 458 -31 b 960 421 705 -31 903 132 l 1090 1093 l 793 1093 l 663 422 b 501 247 646 334 597 247 b 385 422 416 247 365 315 l 515 1093 l 219 1093 l 88 421 b 458 -31 41 175 182 -31 z "},"ù":{"ha":1042,"x_min":0,"x_max":0,"o":"m 644 1183 l 827 1183 l 755 1412 l 528 1412 z m 458 -31 b 960 421 705 -31 903 132 l 1090 1093 l 793 1093 l 663 422 b 501 247 646 334 597 247 b 385 422 416 247 365 315 l 515 1093 l 219 1093 l 88 421 b 458 -31 41 175 182 -31 z "},"Ű":{"ha":1042,"x_min":0,"x_max":0,"o":"m 388 1183 l 551 1183 l 728 1412 l 526 1412 z m 649 1183 l 821 1183 l 1062 1412 l 835 1412 z m 458 -31 b 960 421 705 -31 903 132 l 1090 1093 l 793 1093 l 663 422 b 501 247 646 334 597 247 b 385 422 416 247 365 315 l 515 1093 l 219 1093 l 88 421 b 458 -31 41 175 182 -31 z "},"ű":{"ha":1042,"x_min":0,"x_max":0,"o":"m 388 1183 l 551 1183 l 728 1412 l 526 1412 z m 649 1183 l 821 1183 l 1062 1412 l 835 1412 z m 458 -31 b 960 421 705 -31 903 132 l 1090 1093 l 793 1093 l 663 422 b 501 247 646 334 597 247 b 385 422 416 247 365 315 l 515 1093 l 219 1093 l 88 421 b 458 -31 41 175 182 -31 z "},"Ū":{"ha":1042,"x_min":0,"x_max":0,"o":"m 457 1221 l 902 1221 l 928 1358 l 484 1358 z m 458 -31 b 960 421 705 -31 903 132 l 1090 1093 l 793 1093 l 663 422 b 501 247 646 334 597 247 b 385 422 416 247 365 315 l 515 1093 l 219 1093 l 88 421 b 458 -31 41 175 182 -31 z "},"ū":{"ha":1042,"x_min":0,"x_max":0,"o":"m 457 1221 l 902 1221 l 928 1358 l 484 1358 z m 458 -31 b 960 421 705 -31 903 132 l 1090 1093 l 793 1093 l 663 422 b 501 247 646 334 597 247 b 385 422 416 247 365 315 l 515 1093 l 219 1093 l 88 421 b 458 -31 41 175 182 -31 z "},"Ų":{"ha":1042,"x_min":0,"x_max":0,"o":"m 793 1093 l 663 422 b 501 247 646 334 597 247 b 385 422 416 247 365 315 l 515 1093 l 219 1093 l 88 421 b 339 -16 48 213 142 34 b 233 -211 276 -62 233 -132 b 450 -380 233 -317 309 -380 b 581 -365 490 -380 533 -375 l 555 -182 b 474 -195 519 -191 489 -195 b 435 -151 446 -195 435 -174 b 525 -26 435 -112 463 -77 b 960 421 741 1 909 158 l 1090 1093 z "},"ų":{"ha":1042,"x_min":0,"x_max":0,"o":"m 793 1093 l 663 422 b 501 247 646 334 597 247 b 385 422 416 247 365 315 l 515 1093 l 219 1093 l 88 421 b 339 -16 48 213 142 34 b 233 -211 276 -62 233 -132 b 450 -380 233 -317 309 -380 b 581 -365 490 -380 533 -375 l 555 -182 b 474 -195 519 -191 489 -195 b 435 -151 446 -195 435 -174 b 525 -26 435 -112 463 -77 b 960 421 741 1 909 158 l 1090 1093 z "},"Ů":{"ha":1042,"x_min":0,"x_max":0,"o":"m 672 1158 b 862 1316 767 1158 847 1230 b 726 1475 878 1408 815 1475 b 534 1316 633 1475 549 1407 b 672 1158 519 1229 577 1158 z m 687 1257 b 637 1315 652 1257 631 1283 b 709 1374 644 1349 675 1374 b 759 1315 743 1374 765 1348 b 687 1257 752 1282 720 1257 z m 458 -31 b 960 421 705 -31 903 132 l 1090 1093 l 793 1093 l 663 422 b 501 247 646 334 597 247 b 385 422 416 247 365 315 l 515 1093 l 219 1093 l 88 421 b 458 -31 41 175 182 -31 z "},"ů":{"ha":1042,"x_min":0,"x_max":0,"o":"m 672 1158 b 862 1316 767 1158 847 1230 b 726 1475 878 1408 815 1475 b 534 1316 633 1475 549 1407 b 672 1158 519 1229 577 1158 z m 687 1257 b 637 1315 652 1257 631 1283 b 709 1374 644 1349 675 1374 b 759 1315 743 1374 765 1348 b 687 1257 752 1282 720 1257 z m 458 -31 b 960 421 705 -31 903 132 l 1090 1093 l 793 1093 l 663 422 b 501 247 646 334 597 247 b 385 422 416 247 365 315 l 515 1093 l 219 1093 l 88 421 b 458 -31 41 175 182 -31 z "},"V":{"ha":1125,"x_min":0,"x_max":0,"o":"m 900 1093 l 565 518 l 450 1093 l 148 1093 l 406 -12 l 555 -12 l 1244 1093 z "},"v":{"ha":1125,"x_min":0,"x_max":0,"o":"m 900 1093 l 565 518 l 450 1093 l 148 1093 l 406 -12 l 555 -12 l 1244 1093 z "},"W":{"ha":1375,"x_min":0,"x_max":0,"o":"m 276 -7 l 385 -7 l 708 526 l 828 -7 l 939 -7 l 1494 1093 l 1163 1093 l 929 594 l 819 1091 l 789 1091 l 485 593 l 444 1093 l 148 1093 z "},"w":{"ha":1375,"x_min":0,"x_max":0,"o":"m 276 -7 l 385 -7 l 708 526 l 828 -7 l 939 -7 l 1494 1093 l 1163 1093 l 929 594 l 819 1091 l 789 1091 l 485 593 l 444 1093 l 148 1093 z "},"Ẃ":{"ha":1375,"x_min":0,"x_max":0,"o":"m 849 1183 l 1055 1412 l 827 1412 l 667 1183 z m 276 -7 l 385 -7 l 708 526 l 828 -7 l 939 -7 l 1494 1093 l 1163 1093 l 929 594 l 819 1091 l 789 1091 l 485 593 l 444 1093 l 148 1093 z "},"ẃ":{"ha":1375,"x_min":0,"x_max":0,"o":"m 849 1183 l 1055 1412 l 827 1412 l 667 1183 z m 276 -7 l 385 -7 l 708 526 l 828 -7 l 939 -7 l 1494 1093 l 1163 1093 l 929 594 l 819 1091 l 789 1091 l 485 593 l 444 1093 l 148 1093 z "},"Ŵ":{"ha":1375,"x_min":0,"x_max":0,"o":"m 554 1193 l 770 1193 l 867 1276 l 932 1193 l 1127 1193 l 951 1392 l 803 1392 z m 276 -7 l 385 -7 l 708 526 l 828 -7 l 939 -7 l 1494 1093 l 1163 1093 l 929 594 l 819 1091 l 789 1091 l 485 593 l 444 1093 l 148 1093 z "},"ŵ":{"ha":1375,"x_min":0,"x_max":0,"o":"m 554 1193 l 770 1193 l 867 1276 l 932 1193 l 1127 1193 l 951 1392 l 803 1392 z m 276 -7 l 385 -7 l 708 526 l 828 -7 l 939 -7 l 1494 1093 l 1163 1093 l 929 594 l 819 1091 l 789 1091 l 485 593 l 444 1093 l 148 1093 z "},"Ẅ":{"ha":1375,"x_min":0,"x_max":0,"o":"m 677 1194 b 795 1287 732 1194 785 1236 b 713 1381 805 1337 768 1381 b 595 1287 659 1381 606 1337 b 677 1194 585 1236 623 1194 z m 1004 1194 b 1122 1287 1059 1194 1112 1236 b 1040 1381 1132 1337 1095 1381 b 923 1287 986 1381 932 1337 b 1004 1194 913 1236 950 1194 z m 276 -7 l 385 -7 l 708 526 l 828 -7 l 939 -7 l 1494 1093 l 1163 1093 l 929 594 l 819 1091 l 789 1091 l 485 593 l 444 1093 l 148 1093 z "},"ẅ":{"ha":1375,"x_min":0,"x_max":0,"o":"m 677 1194 b 795 1287 732 1194 785 1236 b 713 1381 805 1337 768 1381 b 595 1287 659 1381 606 1337 b 677 1194 585 1236 623 1194 z m 1004 1194 b 1122 1287 1059 1194 1112 1236 b 1040 1381 1132 1337 1095 1381 b 923 1287 986 1381 932 1337 b 1004 1194 913 1236 950 1194 z m 276 -7 l 385 -7 l 708 526 l 828 -7 l 939 -7 l 1494 1093 l 1163 1093 l 929 594 l 819 1091 l 789 1091 l 485 593 l 444 1093 l 148 1093 z "},"Ẁ":{"ha":1375,"x_min":0,"x_max":0,"o":"m 811 1183 l 994 1183 l 922 1412 l 694 1412 z m 276 -7 l 385 -7 l 708 526 l 828 -7 l 939 -7 l 1494 1093 l 1163 1093 l 929 594 l 819 1091 l 789 1091 l 485 593 l 444 1093 l 148 1093 z "},"ẁ":{"ha":1375,"x_min":0,"x_max":0,"o":"m 811 1183 l 994 1183 l 922 1412 l 694 1412 z m 276 -7 l 385 -7 l 708 526 l 828 -7 l 939 -7 l 1494 1093 l 1163 1093 l 929 594 l 819 1091 l 789 1091 l 485 593 l 444 1093 l 148 1093 z "},"X":{"ha":1043,"x_min":0,"x_max":0,"o":"m -65 0 l 298 0 l 528 323 l 633 0 l 949 0 l 734 559 l 1158 1093 l 798 1093 l 589 805 l 491 1093 l 178 1093 l 385 577 z "},"x":{"ha":1043,"x_min":0,"x_max":0,"o":"m -65 0 l 298 0 l 528 323 l 633 0 l 949 0 l 734 559 l 1158 1093 l 798 1093 l 589 805 l 491 1093 l 178 1093 l 385 577 z "},"Y":{"ha":954,"x_min":0,"x_max":0,"o":"m 250 0 l 546 0 l 634 454 l 1073 1093 l 726 1093 l 530 754 l 461 1093 l 148 1093 l 338 450 z "},"y":{"ha":954,"x_min":0,"x_max":0,"o":"m 250 0 l 546 0 l 634 454 l 1073 1093 l 726 1093 l 530 754 l 461 1093 l 148 1093 l 338 450 z "},"Ý":{"ha":954,"x_min":0,"x_max":0,"o":"m 638 1183 l 844 1412 l 616 1412 l 456 1183 z m 250 0 l 546 0 l 634 454 l 1073 1093 l 726 1093 l 530 754 l 461 1093 l 148 1093 l 338 450 z "},"ý":{"ha":954,"x_min":0,"x_max":0,"o":"m 638 1183 l 844 1412 l 616 1412 l 456 1183 z m 250 0 l 546 0 l 634 454 l 1073 1093 l 726 1093 l 530 754 l 461 1093 l 148 1093 l 338 450 z "},"Ŷ":{"ha":954,"x_min":0,"x_max":0,"o":"m 343 1193 l 559 1193 l 656 1276 l 722 1193 l 916 1193 l 741 1392 l 592 1392 z m 250 0 l 546 0 l 634 454 l 1073 1093 l 726 1093 l 530 754 l 461 1093 l 148 1093 l 338 450 z "},"ŷ":{"ha":954,"x_min":0,"x_max":0,"o":"m 343 1193 l 559 1193 l 656 1276 l 722 1193 l 916 1193 l 741 1392 l 592 1392 z m 250 0 l 546 0 l 634 454 l 1073 1093 l 726 1093 l 530 754 l 461 1093 l 148 1093 l 338 450 z "},"ÿ":{"ha":954,"x_min":0,"x_max":0,"o":"m 467 1194 b 584 1287 521 1194 574 1236 b 503 1381 594 1337 557 1381 b 385 1287 448 1381 395 1337 b 467 1194 374 1236 412 1194 z m 793 1194 b 911 1287 848 1194 901 1236 b 829 1381 921 1337 884 1381 b 712 1287 775 1381 722 1337 b 793 1194 702 1236 739 1194 z m 250 0 l 546 0 l 634 454 l 1073 1093 l 726 1093 l 530 754 l 461 1093 l 148 1093 l 338 450 z "},"Ÿ":{"ha":954,"x_min":0,"x_max":0,"o":"m 467 1194 b 584 1287 521 1194 574 1236 b 503 1381 594 1337 557 1381 b 385 1287 448 1381 395 1337 b 467 1194 374 1236 412 1194 z m 793 1194 b 911 1287 848 1194 901 1236 b 829 1381 921 1337 884 1381 b 712 1287 775 1381 722 1337 b 793 1194 702 1236 739 1194 z m 250 0 l 546 0 l 634 454 l 1073 1093 l 726 1093 l 530 754 l 461 1093 l 148 1093 l 338 450 z "},"Ỳ":{"ha":954,"x_min":0,"x_max":0,"o":"m 600 1183 l 783 1183 l 711 1412 l 484 1412 z m 250 0 l 546 0 l 634 454 l 1073 1093 l 726 1093 l 530 754 l 461 1093 l 148 1093 l 338 450 z "},"ỳ":{"ha":954,"x_min":0,"x_max":0,"o":"m 600 1183 l 783 1183 l 711 1412 l 484 1412 z m 250 0 l 546 0 l 634 454 l 1073 1093 l 726 1093 l 530 754 l 461 1093 l 148 1093 l 338 450 z "},"Z":{"ha":909,"x_min":0,"x_max":0,"o":"m -22 0 l 772 0 l 825 273 l 481 273 l 985 1093 l 191 1093 l 138 822 l 482 822 z "},"z":{"ha":909,"x_min":0,"x_max":0,"o":"m -22 0 l 772 0 l 825 273 l 481 273 l 985 1093 l 191 1093 l 138 822 l 482 822 z "},"Ź":{"ha":909,"x_min":0,"x_max":0,"o":"m 616 1183 l 821 1412 l 594 1412 l 433 1183 z m -22 0 l 772 0 l 825 273 l 481 273 l 985 1093 l 191 1093 l 138 822 l 482 822 z "},"ź":{"ha":909,"x_min":0,"x_max":0,"o":"m 616 1183 l 821 1412 l 594 1412 l 433 1183 z m -22 0 l 772 0 l 825 273 l 481 273 l 985 1093 l 191 1093 l 138 822 l 482 822 z "},"Ž":{"ha":909,"x_min":0,"x_max":0,"o":"m 932 1392 l 716 1392 l 619 1309 l 554 1392 l 359 1392 l 534 1193 l 683 1193 z m -22 0 l 772 0 l 825 273 l 481 273 l 985 1093 l 191 1093 l 138 822 l 482 822 z "},"ž":{"ha":909,"x_min":0,"x_max":0,"o":"m 932 1392 l 716 1392 l 619 1309 l 554 1392 l 359 1392 l 534 1193 l 683 1193 z m -22 0 l 772 0 l 825 273 l 481 273 l 985 1093 l 191 1093 l 138 822 l 482 822 z "},"Ż":{"ha":909,"x_min":0,"x_max":0,"o":"m 607 1193 b 743 1300 669 1193 732 1240 b 649 1409 754 1358 712 1409 b 513 1299 586 1409 524 1358 b 607 1193 502 1241 543 1193 z m -22 0 l 772 0 l 825 273 l 481 273 l 985 1093 l 191 1093 l 138 822 l 482 822 z "},"ż":{"ha":909,"x_min":0,"x_max":0,"o":"m 607 1193 b 743 1300 669 1193 732 1240 b 649 1409 754 1358 712 1409 b 513 1299 586 1409 524 1358 b 607 1193 502 1241 543 1193 z m -22 0 l 772 0 l 825 273 l 481 273 l 985 1093 l 191 1093 l 138 822 l 482 822 z "},"i":{"ha":487,"x_min":0,"x_max":0,"o":"m 16 0 l 313 0 l 525 1093 l 229 1093 z "},"ı":{"ha":487,"x_min":0,"x_max":0,"o":"m 16 0 l 313 0 l 525 1093 l 229 1093 z "},".":{"ha":485,"x_min":0,"x_max":0,"o":"m 161 -39 b 359 130 258 -39 345 37 b 217 298 375 224 311 298 b 18 130 121 298 35 220 b 161 -39 1 36 64 -39 z "},",":{"ha":502,"x_min":0,"x_max":0,"o":"m 65 -260 b 364 66 208 -260 337 -101 b 218 298 388 209 324 298 b 16 120 121 298 32 225 b 115 -33 1 25 54 -33 b 115 -83 117 -40 121 -57 b -37 -208 96 -175 10 -208 b 65 -260 -40 -228 1 -260 z "},":":{"ha":476,"x_min":0,"x_max":0,"o":"m 256 473 b 448 637 350 473 433 546 b 310 800 464 728 401 800 b 117 637 217 800 133 725 b 256 473 100 545 161 473 z m 162 -7 b 355 157 256 -7 340 66 b 217 321 370 249 309 321 b 24 157 123 321 40 245 b 162 -7 7 65 68 -7 z "},";":{"ha":503,"x_min":0,"x_max":0,"o":"m 275 475 b 468 639 370 475 453 548 b 330 803 484 731 421 803 b 136 639 237 803 153 727 b 275 475 119 547 181 475 z m 67 -250 b 366 76 210 -250 339 -91 b 220 309 390 219 326 309 b 18 130 123 309 34 235 b 117 -22 3 35 56 -22 b 117 -73 119 -30 123 -47 b -35 -198 98 -165 12 -198 b 67 -250 -38 -218 3 -250 z "},"…":{"ha":1730,"x_min":0,"x_max":0,"o":"m 225 -39 b 424 130 322 -39 409 37 b 281 298 439 224 376 298 b 82 130 185 298 99 220 b 225 -39 65 36 129 -39 z m 783 -39 b 981 130 880 -39 966 37 b 839 298 997 224 932 298 b 640 130 743 298 656 220 b 783 -39 622 36 686 -39 z m 1325 -39 b 1524 130 1422 -39 1509 37 b 1381 298 1539 224 1476 298 b 1182 130 1285 298 1199 220 b 1325 -39 1165 36 1229 -39 z "},"!":{"ha":530,"x_min":0,"x_max":0,"o":"m 140 382 l 379 382 l 563 1093 l 232 1093 z m 184 -46 b 377 117 278 -46 362 26 b 239 281 392 210 330 281 b 45 117 145 281 61 205 b 184 -46 28 26 90 -46 z "},"¡":{"ha":530,"x_min":0,"x_max":0,"o":"m 342 834 b 149 671 248 834 163 762 b 287 507 134 579 195 507 b 481 671 380 507 465 583 b 342 834 497 762 435 834 z m 386 407 l 146 407 l -37 -305 l 294 -305 z "},"?":{"ha":736,"x_min":0,"x_max":0,"o":"m 189 380 l 458 381 b 467 427 457 393 464 416 b 772 840 515 619 737 606 b 484 1140 794 989 691 1140 b 163 1002 337 1140 222 1072 l 216 797 b 410 892 265 850 336 892 b 504 811 481 892 516 857 b 197 431 483 734 235 631 b 189 380 190 397 189 389 z m 248 -46 b 441 117 342 -46 426 26 b 302 281 456 210 394 281 b 109 117 209 281 125 205 b 248 -46 92 26 154 -46 z "},"¿":{"ha":736,"x_min":0,"x_max":0,"o":"m 490 862 b 296 699 395 862 311 789 b 435 534 281 606 343 534 b 629 699 528 534 612 610 b 490 862 645 790 583 862 z m 549 435 l 279 435 b 271 389 280 423 273 400 b -36 -25 222 197 -1 210 b 253 -324 -58 -174 46 -324 b 574 -186 400 -324 515 -256 l 521 19 b 327 -77 472 -35 401 -77 b 233 5 256 -77 221 -41 b 541 385 254 81 502 184 b 549 435 547 419 549 427 z "},"·":{"ha":484,"x_min":0,"x_max":0,"o":"m 239 364 b 437 532 336 364 422 439 b 295 701 453 627 389 701 b 96 532 199 701 113 623 b 239 364 79 438 142 364 z "},"•":{"ha":831,"x_min":0,"x_max":0,"o":"m 370 275 b 682 536 524 275 655 390 b 460 798 708 682 614 798 b 149 535 302 798 174 676 b 370 275 123 390 217 275 z "},"*":{"ha":612,"x_min":0,"x_max":0,"o":"m 261 641 l 441 641 l 438 800 l 526 694 l 647 832 l 488 890 l 671 956 l 603 1095 l 475 989 l 541 1148 l 360 1148 l 362 989 l 276 1095 l 155 956 l 313 896 l 130 832 l 198 694 l 326 801 z "},"#":{"ha":1096,"x_min":0,"x_max":0,"o":"m 1027 618 l 1090 820 l 963 820 l 1050 1093 l 816 1093 l 729 820 l 548 820 l 635 1093 l 401 1093 l 314 820 l 185 820 l 120 618 l 250 618 l 192 436 l 62 436 l -2 235 l 127 235 l 53 0 l 288 0 l 362 235 l 543 235 l 468 0 l 702 0 l 777 235 l 905 235 l 968 436 l 841 436 l 899 618 z m 607 436 l 426 436 l 484 618 l 665 618 z "},"/":{"ha":738,"x_min":0,"x_max":0,"o":"m -81 -81 l 203 -81 l 873 1175 l 587 1175 z "},"\\":{"ha":738,"x_min":0,"x_max":0,"o":"m 819 -81 l 151 1175 l -135 1175 l 534 -81 z "},"‥":{"ha":1121,"x_min":0,"x_max":0,"o":"m 225 -39 b 424 130 322 -39 409 37 b 281 298 439 224 376 298 b 82 130 185 298 99 220 b 225 -39 65 36 129 -39 z m 716 -39 b 915 130 813 -39 899 37 b 772 298 930 224 866 298 b 573 130 676 298 589 220 b 716 -39 555 36 619 -39 z "},"(":{"ha":496,"x_min":0,"x_max":0,"o":"m 133 -81 l 354 -81 b 328 568 300 62 286 351 b 597 1175 370 785 448 977 l 376 1175 b 79 568 208 989 122 793 b 133 -81 37 347 63 56 z "},")":{"ha":496,"x_min":0,"x_max":0,"o":"m 174 -81 b 480 568 297 56 436 347 b 418 1175 524 793 515 989 l 198 1175 b 231 568 271 977 274 785 b -47 -81 189 351 63 62 z "},"{":{"ha":650,"x_min":0,"x_max":0,"o":"m 319 -81 l 507 -81 l 547 121 l 467 121 b 417 227 421 121 406 169 l 430 303 b 332 575 456 453 413 575 b 533 829 413 575 504 697 l 542 873 b 631 970 554 928 584 968 l 712 972 l 751 1175 l 563 1175 b 318 987 431 1175 341 1104 l 292 868 b 95 649 267 747 176 649 l 66 500 b 178 281 146 500 200 401 l 149 120 b 319 -81 127 3 201 -81 z "},"}":{"ha":650,"x_min":0,"x_max":0,"o":"m 141 -81 b 390 120 259 -81 366 3 l 423 281 b 621 500 448 401 540 500 l 649 649 b 536 868 568 649 515 747 l 557 987 b 386 1175 580 1104 517 1175 l 197 1175 l 157 972 l 237 970 b 290 873 284 968 299 928 l 281 829 b 382 575 258 697 302 575 b 180 303 302 575 212 453 l 163 227 b 72 121 151 169 118 121 l -7 121 l -47 -81 z "},"[":{"ha":551,"x_min":0,"x_max":0,"o":"m 613 972 l 652 1175 l 244 1175 l 0 -81 l 408 -81 l 448 121 l 296 121 l 461 972 z "},"]":{"ha":551,"x_min":0,"x_max":0,"o":"m 605 1175 l 197 1175 l 158 972 l 309 972 l 144 121 l -8 121 l -47 -81 l 361 -81 z "},"-":{"ha":644,"x_min":0,"x_max":0,"o":"m 50 417 l 599 417 l 645 655 l 96 655 z "},"–":{"ha":1046,"x_min":0,"x_max":0,"o":"m 75 417 l 975 417 l 1022 655 l 122 655 z "},"—":{"ha":1389,"x_min":0,"x_max":0,"o":"m 77 417 l 1316 417 l 1362 655 l 123 655 z "},"‒":{"ha":720,"x_min":0,"x_max":0,"o":"m 50 417 l 675 417 l 721 655 l 96 655 z "},"_":{"ha":840,"x_min":0,"x_max":0,"o":"m -97 -92 l 743 -92 l 779 93 l -61 93 z "},"‚":{"ha":422,"x_min":0,"x_max":0,"o":"m 39 -215 b 311 81 169 -215 286 -70 b 178 293 332 212 275 293 b -6 130 90 293 9 227 b 84 -7 -20 45 29 -7 b 85 -54 87 -14 90 -30 b -53 -168 67 -137 -11 -168 b 39 -215 -56 -185 -20 -215 z "},"„":{"ha":829,"x_min":0,"x_max":0,"o":"m 39 -217 b 311 79 169 -217 286 -72 b 178 291 332 210 275 291 b -7 128 90 291 9 224 b 83 -9 -20 43 29 -9 b 84 -56 86 -16 90 -32 b -54 -170 66 -139 -12 -170 b 39 -217 -56 -187 -20 -217 z m 446 -217 b 718 79 576 -217 694 -72 b 585 291 740 210 682 291 b 401 128 498 291 416 224 b 491 -9 387 43 437 -9 b 492 -56 494 -16 497 -32 b 354 -170 474 -139 396 -170 b 446 -217 351 -187 388 -217 z "},"“":{"ha":829,"x_min":0,"x_max":0,"o":"m 399 1114 b 127 818 269 1114 152 969 b 260 606 106 688 163 606 b 445 769 348 606 429 673 b 355 907 458 854 409 907 b 354 954 352 913 349 929 b 492 1067 372 1036 450 1067 b 399 1114 494 1084 458 1114 z m 807 1114 b 535 818 677 1114 559 969 b 668 606 513 688 571 606 b 852 769 755 606 837 673 b 762 907 866 854 817 907 b 762 954 760 913 756 929 b 899 1067 779 1036 857 1067 b 807 1114 902 1084 865 1114 z "},"”":{"ha":830,"x_min":0,"x_max":0,"o":"m 200 612 b 472 909 330 612 447 758 b 338 1120 493 1038 435 1120 b 155 958 251 1120 170 1053 b 245 819 141 871 190 819 b 245 773 248 812 250 797 b 108 659 228 690 150 659 b 200 612 104 642 141 612 z m 608 612 b 880 909 737 612 854 758 b 746 1120 901 1038 843 1120 b 562 958 659 1120 577 1053 b 652 819 549 871 597 819 b 653 773 655 812 658 797 b 515 659 635 690 557 659 b 608 612 512 642 549 612 z "},"‘":{"ha":422,"x_min":0,"x_max":0,"o":"m 399 1114 b 127 818 269 1114 152 969 b 260 606 106 688 163 606 b 445 769 348 606 429 673 b 355 907 458 854 409 907 b 354 954 352 913 349 929 b 492 1067 372 1036 450 1067 b 399 1114 494 1084 458 1114 z "},"’":{"ha":422,"x_min":0,"x_max":0,"o":"m 201 618 b 473 916 331 618 448 764 b 340 1126 494 1045 437 1126 b 156 964 252 1126 171 1060 b 246 826 142 878 191 826 b 247 780 249 819 252 804 b 109 666 229 696 151 666 b 201 618 106 648 142 618 z "},"‛":{"ha":422,"x_min":0,"x_max":0,"o":"m 304 621 b 414 669 362 621 410 651 b 321 783 372 669 306 699 b 340 829 325 806 334 822 b 483 967 394 829 463 881 b 362 1129 505 1063 450 1129 b 147 918 265 1129 176 1048 b 304 621 113 767 174 621 z "},"«":{"ha":928,"x_min":0,"x_max":0,"o":"m 590 866 l 404 901 l 78 563 l 262 172 l 441 206 l 326 539 z m 970 866 l 784 901 l 458 563 l 642 172 l 821 206 l 705 539 z "},"»":{"ha":928,"x_min":0,"x_max":0,"o":"m 313 785 l 135 751 l 251 418 l -14 91 l 172 56 l 498 394 z m 693 785 l 515 751 l 631 418 l 366 91 l 552 56 l 878 394 z "},"‹":{"ha":548,"x_min":0,"x_max":0,"o":"m 590 866 l 404 901 l 78 563 l 262 172 l 441 206 l 326 539 z "},"›":{"ha":548,"x_min":0,"x_max":0,"o":"m 314 787 l 135 751 l 251 418 l -14 92 l 172 58 l 498 395 z "},"\"":{"ha":729,"x_min":0,"x_max":0,"o":"m 174 731 l 339 731 l 478 1121 l 186 1121 z m 516 731 l 682 731 l 821 1121 l 530 1121 z "},"'":{"ha":386,"x_min":0,"x_max":0,"o":"m 173 731 l 339 731 l 477 1121 l 186 1121 z "},"　":{"ha":1493,"x_min":0,"x_max":0,"o":""}," ":{"ha":6719,"x_min":0,"x_max":0,"o":""}," ":{"ha":1493,"x_min":0,"x_max":0,"o":""}," ":{"ha":1493,"x_min":0,"x_max":0,"o":""}," ":{"ha":747,"x_min":0,"x_max":0,"o":""}," ":{"ha":747,"x_min":0,"x_max":0,"o":""}," ":{"ha":1015,"x_min":0,"x_max":0,"o":""}," ":{"ha":374,"x_min":0,"x_max":0,"o":""}," ":{"ha":214,"x_min":0,"x_max":0,"o":""}," ":{"ha":350,"x_min":0,"x_max":0,"o":""}," ":{"ha":485,"x_min":0,"x_max":0,"o":""}," ":{"ha":249,"x_min":0,"x_max":0,"o":""}," ":{"ha":299,"x_min":0,"x_max":0,"o":""}," ":{"ha":498,"x_min":0,"x_max":0,"o":""},"​":{"ha":0,"x_min":0,"x_max":0,"o":""},"‍":{"ha":0,"x_min":0,"x_max":0,"o":""},"‌":{"ha":0,"x_min":0,"x_max":0,"o":""},"":{"ha":1453,"x_min":0,"x_max":0,"o":""},"฿":{"ha":941,"x_min":0,"x_max":0,"o":"m 717 616 b 869 808 790 632 852 705 b 667 1086 892 948 812 1057 l 695 1226 l 465 1226 l 439 1093 l 229 1093 l 16 0 l 247 0 l 216 -159 l 446 -159 l 477 0 b 897 330 711 1 867 144 b 717 616 925 509 823 614 z m 469 841 l 517 841 b 610 753 585 841 620 804 b 486 669 597 688 539 669 l 436 669 z m 616 361 b 469 264 605 303 553 264 l 357 264 l 397 471 l 512 471 b 616 361 585 471 630 426 z "},"₿":{"ha":941,"x_min":0,"x_max":0,"o":"m 717 616 b 869 808 790 632 852 705 b 743 1061 888 921 840 1014 l 777 1226 l 618 1226 l 592 1093 l 588 1093 l 523 1093 l 549 1226 l 391 1226 l 365 1093 l 229 1093 l 16 0 l 182 0 l 151 -159 l 310 -159 l 341 0 l 410 0 l 378 -159 l 537 -159 l 570 9 b 897 330 752 42 871 170 b 717 616 925 509 823 614 z m 469 841 l 517 841 b 610 753 585 841 620 804 b 486 669 597 688 539 669 l 436 669 z m 616 361 b 469 264 605 303 553 264 l 357 264 l 397 471 l 512 471 b 616 361 585 471 630 426 z "},"¢":{"ha":821,"x_min":0,"x_max":0,"o":"m 435 890 l 672 894 l 707 1072 l 470 1072 z m 254 -73 l 491 -73 l 528 119 l 292 123 z "},"¤":{"ha":869,"x_min":0,"x_max":0,"o":"m 776 547 b 760 706 787 605 781 660 l 902 821 l 820 922 l 676 806 b 515 852 632 836 577 852 b 349 810 455 852 399 836 l 256 925 l 136 825 l 230 710 b 151 544 189 661 161 602 b 166 391 140 488 146 435 l 22 274 l 102 174 l 247 291 b 410 241 291 259 347 241 b 575 283 469 241 525 256 l 671 170 l 791 268 l 696 382 b 776 547 736 431 765 488 z m 560 548 b 450 449 552 498 509 449 b 365 547 395 449 355 490 b 471 644 372 596 413 644 b 560 548 519 644 570 610 z "},"$":{"ha":860,"x_min":0,"x_max":0,"o":"m 599 639 b 443 780 524 684 432 724 b 536 844 449 814 484 844 b 683 754 598 844 656 808 l 876 920 b 669 1093 844 1000 766 1065 l 695 1226 l 465 1226 l 439 1095 b 161 830 299 1059 188 960 b 344 484 128 674 214 564 b 503 317 428 433 517 382 b 395 250 493 267 434 250 b 195 374 314 250 239 299 l -2 203 b 248 1 39 109 124 33 l 216 -159 l 446 -159 l 475 -7 b 798 287 653 22 770 133 b 599 639 828 448 739 555 z "},"€":{"ha":1200,"x_min":0,"x_max":0,"o":"m 720 252 b 511 396 612 252 541 311 l 838 396 l 875 526 l 499 526 b 505 559 500 536 503 548 b 507 573 505 564 507 568 l 892 573 l 929 703 l 567 703 b 817 838 627 786 720 838 b 1033 705 901 838 972 797 l 1244 897 b 881 1116 1174 1021 1034 1103 b 244 703 639 1136 355 986 l 118 703 l 80 573 l 208 573 l 206 560 b 201 526 204 549 203 537 l 83 526 l 45 396 l 201 396 b 673 -24 224 155 396 -24 b 1092 123 815 -24 975 26 l 962 352 b 720 252 881 288 802 252 z "},"ƒ":{"ha":927,"x_min":0,"x_max":0,"o":"m 889 849 l 984 849 l 1035 1108 l 910 1108 b 410 735 623 1108 526 1030 l 373 639 l 124 639 l 94 483 l 312 483 l 312 482 b 96 263 230 273 176 263 l 1 263 l -50 4 l 79 4 b 574 375 370 4 464 96 l 616 483 l 865 483 l 895 639 l 677 639 b 889 849 759 840 809 849 z "},"₣":{"ha":805,"x_min":0,"x_max":0,"o":"m 857 823 l 910 1096 l 229 1096 l 79 323 l -9 323 l -45 139 l 43 139 l 16 -1 l 312 -1 l 339 139 l 549 139 l 585 323 l 375 323 l 391 404 l 702 404 l 749 646 l 438 646 l 472 823 z "},"₭":{"ha":1005,"x_min":0,"x_max":0,"o":"m 1109 1093 l 756 1093 l 446 689 l 525 1093 l 229 1093 l 145 665 l 54 665 l 11 444 l 102 444 l 16 0 l 313 0 l 399 444 l 410 444 l 597 0 l 916 0 l 726 444 l 925 444 l 968 665 l 773 665 z "},"₤":{"ha":829,"x_min":0,"x_max":0,"o":"m 442 376 l 578 376 l 603 501 l 447 501 b 444 549 446 517 445 532 l 612 549 l 637 674 l 450 674 b 451 683 450 677 450 680 b 598 858 470 789 509 858 b 689 808 644 858 674 840 l 871 940 b 600 1104 836 1037 738 1104 b 163 725 371 1104 202 952 b 156 674 159 707 157 690 l 104 674 l 79 549 l 157 549 b 160 501 158 532 159 517 l 71 501 l 46 376 l 152 376 b 93 245 142 332 123 290 l 16 245 l -32 0 l 702 0 l 749 245 l 382 245 b 442 376 414 286 433 334 z "},"₦":{"ha":1138,"x_min":0,"x_max":0,"o":"m 1181 665 l 1073 665 l 1156 1095 l 859 1095 l 758 571 l 352 1104 l 251 1104 l 165 665 l 58 665 l 14 444 l 122 444 l 36 -1 l 332 -1 l 434 524 l 842 -11 l 941 -11 l 1029 444 l 1138 444 z "},"₱":{"ha":1121,"x_min":0,"x_max":0,"o":"m 1024 724 l 1154 724 l 1189 901 l 1001 901 b 680 1093 951 1023 829 1093 l 304 1093 l 267 901 l 125 901 l 91 724 l 233 724 l 227 690 l 84 690 l 50 514 l 192 514 l 92 0 l 389 0 l 451 322 l 531 322 b 951 514 723 322 869 393 l 1114 514 l 1147 690 l 1020 690 l 1021 700 b 1024 724 1023 708 1023 716 z m 744 702 b 583 589 733 633 678 589 l 503 590 l 549 825 l 629 825 b 744 702 709 825 755 776 z "},"₽":{"ha":1063,"x_min":0,"x_max":0,"o":"m 730 1093 l 321 1093 l 222 583 l 82 583 l 42 376 l 181 376 l 167 302 l 27 302 l -8 119 l 131 119 l 108 0 l 398 0 l 421 119 l 698 119 l 733 302 l 457 302 l 470 370 l 606 370 b 1077 724 856 370 1043 513 b 730 1093 1116 963 926 1093 z m 795 719 b 642 623 785 660 730 623 l 519 624 l 559 825 l 682 825 b 795 719 758 825 805 781 z "},"₨":{"ha":893,"x_min":0,"x_max":0,"o":"m 827 879 l 932 879 l 1010 1093 l 264 1093 l 186 879 l 387 879 b 530 807 461 879 508 850 l 211 807 l 157 658 l 524 658 b 321 543 492 591 423 543 l 134 544 l 125 499 l 433 -1 l 760 -1 l 500 375 b 819 658 637 368 768 506 l 903 658 l 957 807 l 839 807 b 827 879 838 832 833 857 z "},"£":{"ha":829,"x_min":0,"x_max":0,"o":"m 444 383 b 448 416 446 394 447 405 l 587 416 l 622 593 l 443 593 b 451 683 443 621 445 650 b 598 858 470 789 509 858 b 689 808 644 858 674 840 l 871 940 b 593 1104 831 1045 721 1104 b 163 725 382 1104 205 973 b 155 593 154 675 153 633 l 90 593 l 55 416 l 159 416 b 155 389 158 407 157 398 b 93 245 146 340 126 294 l 16 245 l -32 0 l 702 0 l 749 245 l 387 245 b 444 383 416 289 435 338 z "},"₸":{"ha":834,"x_min":0,"x_max":0,"o":"m 162 1093 l 116 855 l 892 855 l 939 1093 z m 880 791 l 104 791 l 58 553 l 298 553 l 193 0 l 484 0 l 588 553 l 834 553 z "},"₮":{"ha":872,"x_min":0,"x_max":0,"o":"m 892 822 l 945 1093 l 162 1093 l 110 822 l 353 822 l 304 568 l 144 500 l 112 335 l 271 404 l 258 337 l 99 269 l 67 104 l 227 172 l 193 0 l 490 0 l 550 311 l 709 378 l 741 544 l 583 476 l 595 542 l 754 610 l 786 774 l 627 707 l 650 822 z "},"₩":{"ha":1375,"x_min":0,"x_max":0,"o":"m 1494 1093 l 1163 1093 l 929 594 l 819 1091 l 789 1091 l 485 593 l 444 1093 l 148 1093 l 199 659 l 74 659 l 30 435 l 224 435 l 276 -7 l 385 -7 l 708 526 l 828 -7 l 939 -7 l 1162 435 l 1357 435 l 1400 659 l 1274 659 z "},"¥":{"ha":1020,"x_min":0,"x_max":0,"o":"m 1106 1093 l 760 1093 l 563 754 l 494 1093 l 181 1093 l 315 642 l 124 642 l 87 450 l 372 450 l 372 450 l 358 382 l 74 382 l 36 190 l 321 190 l 283 0 l 579 0 l 616 190 l 890 190 l 928 382 l 653 382 l 667 450 l 941 450 l 979 642 l 796 642 z "},"+":{"ha":876,"x_min":0,"x_max":0,"o":"m 831 662 l 618 662 l 666 910 l 406 910 l 357 662 l 144 662 l 97 418 l 310 418 l 262 169 l 522 169 l 570 418 l 783 418 z "},"−":{"ha":869,"x_min":0,"x_max":0,"o":"m 98 418 l 777 418 l 824 662 l 145 662 z "},"×":{"ha":1001,"x_min":0,"x_max":0,"o":"m 973 752 l 817 945 l 542 712 l 369 929 l 181 766 l 353 551 l 78 319 l 235 127 l 507 357 l 679 142 l 867 305 l 696 518 z "},"÷":{"ha":1078,"x_min":0,"x_max":0,"o":"m 589 722 b 790 888 681 722 772 799 b 652 1054 807 976 744 1054 b 453 888 562 1054 471 979 b 589 722 435 797 497 721 z m 96 409 l 983 409 l 1027 635 l 140 635 z m 444 -19 b 646 148 537 -19 629 60 b 509 314 663 237 600 314 b 309 149 420 314 327 241 b 444 -19 291 57 354 -19 z "},"=":{"ha":884,"x_min":0,"x_max":0,"o":"m 134 605 l 827 605 l 871 831 l 178 831 z m 62 235 l 755 235 l 800 460 l 106 460 z "},"≠":{"ha":884,"x_min":0,"x_max":0,"o":"m 827 603 l 871 829 l 720 829 l 840 1053 l 661 1053 l 541 829 l 178 829 l 134 603 l 419 603 l 341 458 l 105 458 l 62 233 l 220 233 l 106 22 l 286 22 l 400 233 l 755 233 l 799 458 l 521 458 l 599 603 z "},">":{"ha":865,"x_min":0,"x_max":0,"o":"m 216 985 l 167 735 l 428 556 l 102 397 l 36 102 l 797 544 l 800 557 z "},"<":{"ha":865,"x_min":0,"x_max":0,"o":"m 884 990 l 123 549 l 120 535 l 703 108 l 753 357 l 491 536 l 818 696 z "},"≥":{"ha":883,"x_min":0,"x_max":0,"o":"m 264 1057 l 215 857 l 476 713 l 150 586 l 84 351 l 845 703 l 848 714 z m 29 58 l 672 58 l 708 241 l 65 241 z "},"≤":{"ha":883,"x_min":0,"x_max":0,"o":"m 914 1057 l 153 703 l 151 692 l 734 351 l 783 551 l 522 693 l 848 821 z m 36 58 l 679 58 l 715 241 l 72 241 z "},"±":{"ha":810,"x_min":0,"x_max":0,"o":"m 610 793 l 646 975 l 385 975 l 350 793 l 170 793 l 128 576 l 307 576 l 269 376 l 530 376 l 568 576 l 747 576 l 789 793 z m 36 100 l 655 100 l 694 302 l 75 302 z "},"≈":{"ha":944,"x_min":0,"x_max":0,"o":"m 292 576 b 396 686 317 637 348 686 b 635 571 471 686 495 571 b 927 808 727 571 854 618 l 774 861 b 670 751 749 800 717 751 b 429 865 596 751 570 865 b 138 629 334 865 209 812 z m 218 199 b 323 309 243 260 275 309 b 562 195 397 309 421 195 b 854 431 653 195 781 242 l 701 484 b 597 374 675 422 643 374 b 356 488 522 374 496 488 b 65 252 260 488 136 435 z "},"~":{"ha":1164,"x_min":0,"x_max":0,"o":"m 300 370 b 438 505 332 445 376 505 b 755 364 534 505 574 364 b 1118 655 873 364 1025 422 l 919 720 b 781 585 886 646 841 585 b 463 726 685 585 644 726 b 100 435 339 726 189 661 z "},"¬":{"ha":1015,"x_min":0,"x_max":0,"o":"m 962 623 l 983 732 l 159 732 l 109 475 l 667 475 l 626 262 l 892 262 l 933 475 l 942 522 z "},"^":{"ha":659,"x_min":0,"x_max":0,"o":"m 709 741 l 490 1137 l 451 1137 l 79 741 l 313 741 l 433 884 l 499 741 z "},"∅":{"ha":1033,"x_min":0,"x_max":0,"o":"m 1105 1087 l 897 1087 l 774 942 b 614 970 726 960 673 970 b 85 522 349 970 127 766 b 158 210 63 399 92 289 l -24 -7 l 186 -7 l 287 113 b 467 77 339 90 400 77 b 998 525 736 77 956 284 b 909 854 1022 659 986 774 z m 277 522 b 579 775 300 656 425 775 b 630 770 597 775 614 774 l 299 378 b 277 522 276 418 267 468 z m 802 522 b 501 271 779 390 658 271 b 427 280 475 271 450 274 l 768 687 b 802 522 800 643 814 585 z "},"∞":{"ha":1645,"x_min":0,"x_max":0,"o":"m 1300 958 b 890 768 1160 958 1010 888 b 541 958 816 883 691 958 b 78 563 306 958 119 777 b 399 141 34 334 166 141 b 810 331 541 141 690 212 b 1158 141 884 216 1009 141 b 1622 536 1385 141 1579 314 b 1300 958 1666 764 1534 958 z m 450 372 b 307 549 357 372 290 448 b 505 726 323 646 407 726 b 738 549 600 726 688 651 b 450 372 659 459 550 372 z m 1394 549 b 1196 372 1378 456 1295 372 b 962 549 1099 372 1010 451 b 1251 726 1038 637 1147 726 b 1394 549 1348 726 1410 647 z "},"∫":{"ha":802,"x_min":0,"x_max":0,"o":"m -90 -203 l 23 -203 b 381 33 199 -203 327 -127 l 687 939 b 836 1055 707 1001 760 1055 l 899 1055 l 945 1289 l 831 1289 b 475 1053 657 1289 529 1213 l 169 146 b 18 31 149 85 96 31 l -45 31 z "},"∏":{"ha":1006,"x_min":0,"x_max":0,"o":"m 1156 1322 l 206 1322 l 159 1080 l 300 1080 l 56 -170 l 320 -170 l 564 1080 l 713 1080 l 471 -170 l 734 -170 l 977 1080 l 1109 1080 z "},"∑":{"ha":1020,"x_min":0,"x_max":0,"o":"m 1128 1305 l 189 1305 l 187 1294 l 477 578 l -94 -149 l -101 -186 l 837 -186 l 884 55 l 388 56 l 764 536 l 764 542 l 559 1063 l 1081 1063 z "},"√":{"ha":859,"x_min":0,"x_max":0,"o":"m 1320 1494 l 867 1494 l 376 575 l 341 888 l 108 888 l 268 -51 l 283 -51 l 1000 1252 l 1273 1252 z "},"µ":{"ha":998,"x_min":0,"x_max":0,"o":""},"∂":{"ha":925,"x_min":0,"x_max":0,"o":"m 399 -27 b 886 456 681 -27 842 188 b 604 1111 949 827 772 1045 l 374 962 b 656 585 554 884 671 754 b 436 722 644 666 544 722 b 41 370 235 722 71 562 b 399 -27 9 175 123 -27 z m 425 208 b 311 353 338 208 296 275 b 473 498 325 433 391 498 b 584 344 557 498 602 428 b 425 208 568 269 507 208 z "},"%":{"ha":1234,"x_min":0,"x_max":0,"o":"m 356 595 b 658 850 511 595 635 715 b 436 1106 683 996 584 1106 b 134 850 281 1106 157 984 b 356 595 109 706 208 595 z m 56 0 l 298 0 l 1225 1094 l 984 1094 z m 382 764 b 304 850 332 764 296 801 b 409 936 312 896 358 936 b 486 850 458 936 494 899 b 382 764 477 804 433 764 z m 853 -14 b 1155 243 1008 -14 1132 109 b 932 498 1180 388 1080 498 b 631 242 778 498 654 378 b 853 -14 606 98 705 -14 z m 878 156 b 801 243 828 156 792 193 b 906 328 809 288 854 328 b 982 242 955 328 990 290 b 878 156 975 197 930 156 z "},"‰":{"ha":1809,"x_min":0,"x_max":0,"o":"m 356 595 b 658 850 511 595 635 715 b 436 1106 683 996 584 1106 b 134 850 281 1106 157 984 b 356 595 109 706 208 595 z m 56 0 l 298 0 l 1225 1094 l 984 1094 z m 382 764 b 304 850 332 764 296 801 b 409 936 312 896 358 936 b 486 850 458 936 494 899 b 382 764 477 804 433 764 z m 853 -14 b 1155 243 1008 -14 1132 109 b 932 498 1180 388 1080 498 b 631 242 778 498 654 378 b 853 -14 606 98 705 -14 z m 1428 -14 b 1729 243 1583 -14 1706 109 b 1506 498 1754 388 1655 498 b 1205 242 1352 498 1228 378 b 1428 -14 1180 98 1280 -14 z m 878 156 b 801 243 828 156 792 193 b 906 328 809 288 854 328 b 982 242 955 328 990 290 b 878 156 975 197 930 156 z m 1452 156 b 1375 243 1402 156 1367 193 b 1480 328 1383 288 1429 328 b 1556 242 1529 328 1565 290 b 1452 156 1549 197 1504 156 z "},"↑":{"ha":1457,"x_min":0,"x_max":0,"o":"m 1220 669 l 779 1123 l 339 669 l 469 538 l 656 728 l 656 -96 l 903 -96 l 903 727 l 1089 538 z "},"↗":{"ha":1457,"x_min":0,"x_max":0,"o":"m 545 945 l 545 760 l 810 762 l 229 180 l 404 5 l 985 587 l 983 321 l 1168 321 l 1178 955 z "},"→":{"ha":1457,"x_min":0,"x_max":0,"o":"m 918 965 l 787 834 l 977 648 l 153 648 l 153 401 l 977 401 l 787 214 l 918 84 l 1373 524 z "},"↘":{"ha":1457,"x_min":0,"x_max":0,"o":"m 582 93 l 1215 83 l 1205 715 l 1021 715 l 1023 450 l 441 1032 l 265 857 l 848 275 l 582 277 z "},"↓":{"ha":1457,"x_min":0,"x_max":0,"o":"m 1033 511 l 847 321 l 847 1145 l 600 1145 l 600 321 l 413 511 l 283 380 l 723 -75 l 1164 380 z "},"↙":{"ha":1457,"x_min":0,"x_max":0,"o":"m 1276 876 l 1101 1050 l 519 469 l 521 734 l 336 734 l 326 101 l 959 111 l 959 296 l 694 294 z "},"←":{"ha":1457,"x_min":0,"x_max":0,"o":"m 1349 648 l 526 648 l 715 834 l 585 965 l 130 524 l 585 84 l 715 214 l 526 401 l 1349 401 z "},"↖":{"ha":1457,"x_min":0,"x_max":0,"o":"m 1234 173 l 652 755 l 917 753 l 917 938 l 283 948 l 294 315 l 478 315 l 476 581 l 1058 -2 z "},"↔":{"ha":1457,"x_min":0,"x_max":0,"o":"m 981 965 l 850 834 l 1040 648 l 463 648 l 652 834 l 522 965 l 67 524 l 522 84 l 652 214 l 463 401 l 1040 401 l 850 214 l 981 84 l 1436 524 z "},"↕":{"ha":1457,"x_min":0,"x_max":0,"o":"m 1187 272 l 1057 402 l 871 213 l 871 789 l 1057 600 l 1187 731 l 747 1185 l 307 731 l 437 600 l 623 789 l 623 213 l 437 402 l 307 272 l 747 -183 z "},"◊":{"ha":884,"x_min":0,"x_max":0,"o":"m 362 5 l 772 528 l 566 1052 l 159 528 z m 412 321 l 343 508 l 516 736 l 587 549 z "},"@":{"ha":1611,"x_min":0,"x_max":0,"o":"m 626 -296 b 808 -266 712 -296 764 -284 l 798 -30 b 656 -50 751 -47 709 -50 b 323 359 427 -50 288 119 b 937 877 362 622 599 877 b 1287 486 1204 877 1329 713 b 1084 174 1261 347 1174 174 b 1050 257 1038 174 1042 219 b 1059 289 1053 270 1057 281 l 1186 698 l 1000 698 l 945 602 b 809 709 952 657 908 709 b 479 393 642 711 509 563 b 658 114 454 240 522 114 b 837 223 739 114 817 159 b 1027 -23 812 69 851 -23 b 1586 527 1335 -23 1550 260 b 977 1135 1630 857 1399 1135 b 35 330 494 1135 84 771 b 626 -296 -5 -33 216 -296 z m 766 307 b 707 393 725 307 699 338 b 830 515 718 459 772 515 b 886 430 879 515 895 477 b 766 307 873 367 822 307 z "},"&":{"ha":1120,"x_min":0,"x_max":0,"o":"m 1059 239 b 918 286 1019 241 970 258 b 1024 580 962 369 997 467 l 749 576 b 704 445 735 530 721 486 b 505 810 581 562 486 707 b 596 895 515 871 560 895 b 671 799 654 895 673 849 l 931 863 b 634 1125 939 1011 821 1125 b 245 823 434 1125 273 994 b 269 621 235 758 245 690 b 36 347 140 564 60 472 b 416 -24 -5 136 136 -24 b 743 76 546 -24 654 10 b 1005 -14 836 20 929 -14 z m 439 216 b 304 336 331 216 293 273 b 365 432 312 374 333 406 b 534 235 412 362 471 294 b 439 216 507 222 475 216 z "},"¶":{"ha":1102,"x_min":0,"x_max":0,"o":"m 625 1119 b 214 812 397 1119 249 993 b 490 449 176 609 302 451 l 390 -69 l 587 -69 l 818 1119 z m 909 1119 l 677 -75 l 873 -75 l 1105 1119 z "},"§":{"ha":916,"x_min":0,"x_max":0,"o":"m 639 786 b 496 884 566 824 490 852 b 563 916 500 905 524 916 b 711 855 622 916 686 889 l 872 1007 b 595 1138 848 1078 730 1138 b 262 916 431 1138 290 1054 b 304 729 247 845 264 782 b 193 569 245 686 205 630 b 366 307 169 450 254 363 b 496 200 432 275 503 240 b 422 164 490 174 460 164 b 222 257 337 164 248 212 l 75 93 b 376 -60 100 7 231 -60 b 739 201 560 -60 707 41 b 706 365 752 269 739 322 b 806 537 760 406 795 463 b 639 786 820 628 791 709 z m 403 568 b 460 614 406 588 425 606 b 597 511 519 588 604 555 b 554 471 595 493 580 479 b 403 568 481 504 399 528 z "},"©":{"ha":1200,"x_min":0,"x_max":0,"o":"m 546 -61 b 1166 484 868 -61 1122 175 b 686 1040 1209 796 1013 1040 b 66 496 364 1040 109 804 b 546 -61 24 189 214 -61 z m 557 68 b 195 496 303 68 159 266 b 675 911 229 723 427 911 b 1038 484 928 911 1073 715 b 557 68 1002 254 802 68 z m 570 168 b 787 250 649 168 728 195 l 703 401 b 606 362 671 376 641 362 b 500 511 530 362 484 433 b 640 625 515 580 571 625 b 740 585 680 625 718 609 l 869 732 b 665 820 820 787 755 820 b 304 515 490 820 338 696 b 570 168 269 322 385 168 z "},"®":{"ha":765,"x_min":0,"x_max":0,"o":"m 425 1093 b 73 802 250 1093 103 982 b 340 483 43 628 142 483 b 693 775 520 483 664 602 b 425 1093 722 947 624 1093 z m 614 781 b 350 555 592 648 481 555 b 151 795 208 555 130 664 b 415 1022 172 924 279 1022 b 614 781 557 1022 636 914 z m 410 945 l 307 945 l 248 638 l 331 638 l 354 756 l 410 638 l 500 638 l 436 758 b 506 840 472 770 499 800 b 410 945 517 904 473 945 z m 376 871 l 398 871 b 425 840 415 871 427 858 b 387 811 422 823 407 811 l 364 812 z "},"™":{"ha":925,"x_min":0,"x_max":0,"o":"m 877 1097 l 642 831 l 519 1097 l 463 1097 l 372 629 l 498 629 l 532 806 l 611 637 l 612 637 l 762 808 l 727 629 l 853 629 l 944 1097 z m 401 978 l 423 1093 l 91 1093 l 68 978 l 172 978 l 104 629 l 230 629 l 298 978 z "},"°":{"ha":500,"x_min":0,"x_max":0,"o":"m 326 735 b 557 926 445 735 541 819 b 377 1118 573 1039 494 1118 b 145 926 257 1118 161 1034 b 326 735 129 814 209 735 z m 344 853 b 269 926 298 853 264 882 b 358 1002 274 966 309 1002 b 433 928 404 1002 437 970 b 344 853 428 891 397 853 z "},"|":{"ha":441,"x_min":0,"x_max":0,"o":"m -14 -305 l 168 -305 l 472 1255 l 290 1255 z "},"¦":{"ha":441,"x_min":0,"x_max":0,"o":"m 155 587 l 337 587 l 467 1255 l 285 1255 z m -19 -305 l 163 -305 l 296 373 l 113 373 z "},"†":{"ha":484,"x_min":0,"x_max":0,"o":"m 579 967 l 437 967 l 467 1119 l 295 1119 l 266 967 l 124 967 l 98 833 l 239 833 l 78 0 l 249 0 l 411 833 l 553 833 z "},"‡":{"ha":484,"x_min":0,"x_max":0,"o":"m 553 833 l 579 967 l 437 967 l 467 1119 l 295 1119 l 266 967 l 124 967 l 98 833 l 239 833 l 133 283 l -9 283 l -36 149 l 106 149 l 78 0 l 249 0 l 278 149 l 420 149 l 446 283 l 304 283 l 411 833 z "},"℮":{"ha":1329,"x_min":0,"x_max":0,"o":"m 715 -22 b 1250 284 984 -22 1187 142 l 1166 284 b 713 59 1115 176 930 59 b 286 236 569 59 408 112 l 286 505 l 1300 505 b 1305 591 1303 524 1305 562 b 719 1109 1305 874 1052 1109 b 83 544 376 1109 83 859 b 715 -22 83 222 386 -22 z m 286 581 l 286 854 b 719 1029 401 968 553 1029 b 1117 868 884 1029 1016 969 l 1117 581 z "},"ʼ":{"ha":334,"x_min":0,"x_max":0,"o":"m 79 743 l 293 743 l 458 1119 l 203 1119 z "},"̈":{"ha":0,"x_min":0,"x_max":0,"o":"m -418 915 b -300 1008 -363 915 -311 957 b -382 1102 -290 1058 -328 1102 b -500 1008 -436 1102 -490 1058 b -418 915 -510 957 -473 915 z m -91 915 b 28 1008 -37 915 18 957 b -55 1102 37 1058 -1 1102 b -172 1008 -109 1102 -163 1058 b -91 915 -182 957 -145 915 z "},"̇":{"ha":0,"x_min":0,"x_max":0,"o":"m -245 913 b -109 1021 -182 913 -120 961 b -203 1129 -98 1078 -140 1129 b -338 1020 -266 1129 -328 1078 b -245 913 -350 962 -309 913 z "},"̀":{"ha":0,"x_min":0,"x_max":0,"o":"m -205 904 l -22 904 l -94 1133 l -321 1133 z "},"́":{"ha":0,"x_min":0,"x_max":0,"o":"m -184 904 l 22 1133 l -205 1133 l -366 904 z "},"̋":{"ha":0,"x_min":0,"x_max":0,"o":"m -611 904 l -448 904 l -271 1133 l -473 1133 z m -350 904 l -178 904 l 63 1133 l -164 1133 z "},"̂":{"ha":0,"x_min":0,"x_max":0,"o":"m -562 913 l -345 913 l -248 996 l -183 913 l 12 913 l -164 1112 l -313 1112 z "},"̌":{"ha":0,"x_min":0,"x_max":0,"o":"m 12 1112 l -205 1112 l -302 1029 l -367 1112 l -562 1112 l -387 913 l -238 913 z "},"̆":{"ha":0,"x_min":0,"x_max":0,"o":"m -245 909 b 6 1114 -113 909 -17 990 l -124 1114 b -229 1023 -134 1060 -177 1023 b -301 1114 -279 1023 -311 1062 l -431 1114 b -245 909 -452 1003 -374 909 z "},"̊":{"ha":0,"x_min":0,"x_max":0,"o":"m -198 878 b -8 1037 -103 878 -23 950 b -144 1196 7 1128 -55 1196 b -336 1037 -237 1196 -321 1127 b -198 878 -352 949 -293 878 z m -183 978 b -233 1036 -218 978 -239 1004 b -161 1095 -227 1069 -195 1095 b -111 1036 -127 1095 -105 1068 b -183 978 -118 1003 -150 978 z "},"̃":{"ha":0,"x_min":0,"x_max":0,"o":"m -501 920 b -415 1005 -481 967 -454 1005 b -216 917 -355 1005 -330 917 b 11 1099 -143 917 -47 954 l -114 1139 b -201 1055 -134 1093 -163 1055 b -399 1143 -260 1055 -286 1143 b -626 961 -477 1143 -570 1103 z "},"̄":{"ha":0,"x_min":0,"x_max":0,"o":"m -461 942 l -16 942 l 11 1078 l -435 1078 z "},"̒":{"ha":0,"x_min":0,"x_max":0,"o":"m -176 1229 b -387 1031 -279 1229 -370 1133 b -283 890 -401 945 -355 890 b -142 998 -214 890 -153 939 b -216 1089 -133 1051 -172 1089 b -218 1120 -220 1095 -222 1103 b -109 1198 -207 1177 -140 1198 b -176 1229 -106 1209 -132 1229 z "},"̦":{"ha":0,"x_min":0,"x_max":0,"o":"m -339 -419 b -128 -221 -235 -419 -145 -323 b -231 -81 -114 -135 -160 -81 b -373 -189 -301 -81 -362 -130 b -299 -279 -382 -241 -343 -279 b -296 -311 -295 -286 -293 -294 b -407 -388 -308 -368 -375 -388 b -339 -419 -408 -399 -383 -419 z "},"̧":{"ha":0,"x_min":0,"x_max":0,"o":"m -368 -389 b -49 -174 -205 -391 -59 -286 b -146 -58 -43 -109 -85 -58 b -163 -59 -153 -58 -157 -59 l -81 28 l -210 28 l -337 -113 l -309 -154 b -275 -149 -295 -151 -284 -149 b -235 -180 -239 -149 -234 -169 b -422 -233 -239 -210 -290 -233 z "},"̨":{"ha":0,"x_min":0,"x_max":0,"o":"m -73 -372 l -99 -189 b -180 -201 -134 -197 -165 -201 b -219 -157 -208 -201 -219 -180 b -85 0 -219 -111 -179 -69 l -216 23 b -421 -218 -328 -7 -421 -101 b -203 -387 -421 -323 -345 -387 b -73 -372 -164 -387 -121 -382 z "},"̵":{"ha":0,"x_min":0,"x_max":0,"o":"m -619 426 l -25 426 l 5 582 l -589 582 z "},"̶":{"ha":0,"x_min":0,"x_max":0,"o":"m -795 426 l 274 426 l 304 582 l -766 582 z "},"̷":{"ha":0,"x_min":0,"x_max":0,"o":"m -538 604 l 45 950 l 86 1161 l -498 814 z "},"̸":{"ha":0,"x_min":0,"x_max":0,"o":"m -922 -76 l -735 -76 l 102 877 l -83 877 z "},"¨":{"ha":466,"x_min":0,"x_max":0,"o":"m 48 915 b 165 1008 102 915 155 957 b 84 1102 176 1058 138 1102 b -34 1008 30 1102 -24 1058 b 48 915 -44 957 -7 915 z m 375 915 b 493 1008 429 915 483 957 b 411 1102 503 1058 465 1102 b 294 1008 357 1102 303 1058 b 375 915 283 957 321 915 z "},"˙":{"ha":448,"x_min":0,"x_max":0,"o":"m 203 913 b 340 1021 266 913 328 961 b 245 1129 351 1078 309 1129 b 110 1020 182 1129 121 1078 b 203 913 98 962 140 913 z "},"`":{"ha":457,"x_min":0,"x_max":0,"o":"m 139 904 l 321 904 l 250 1133 l 22 1133 z "},"´":{"ha":534,"x_min":0,"x_max":0,"o":"m 150 904 l 355 1133 l 128 1133 l -33 904 z "},"˝":{"ha":462,"x_min":0,"x_max":0,"o":"m -33 904 l 130 904 l 308 1133 l 105 1133 z m 229 904 l 401 904 l 642 1133 l 414 1133 z "},"ˆ":{"ha":456,"x_min":0,"x_max":0,"o":"m -50 913 l 168 913 l 264 996 l 330 913 l 524 913 l 349 1112 l 200 1112 z "},"ˇ":{"ha":456,"x_min":0,"x_max":0,"o":"m 524 1112 l 307 1112 l 210 1029 l 145 1112 l -50 1112 l 125 913 l 274 913 z "},"˘":{"ha":458,"x_min":0,"x_max":0,"o":"m 220 909 b 471 1114 351 909 448 990 l 340 1114 b 236 1023 330 1060 288 1023 b 163 1114 186 1023 153 1062 l 33 1114 b 220 909 12 1003 90 909 z "},"˚":{"ha":439,"x_min":0,"x_max":0,"o":"m 146 878 b 336 1037 241 878 321 950 b 200 1196 352 1128 290 1196 b 8 1037 107 1196 24 1127 b 146 878 -7 949 52 878 z m 161 978 b 112 1036 127 978 106 1004 b 184 1095 118 1069 150 1095 b 233 1036 218 1095 239 1068 b 161 978 227 1003 195 978 z "},"˜":{"ha":561,"x_min":0,"x_max":0,"o":"m 115 920 b 201 1005 134 967 162 1005 b 399 917 261 1005 286 917 b 626 1099 473 917 568 954 l 502 1139 b 415 1055 481 1093 453 1055 b 216 1143 355 1055 330 1143 b -10 961 139 1143 45 1103 z "},"¯":{"ha":437,"x_min":0,"x_max":0,"o":"m -10 942 l 435 942 l 461 1078 l 16 1078 z "},"¸":{"ha":407,"x_min":0,"x_max":0,"o":"m 77 -389 b 395 -174 239 -391 385 -286 b 298 -58 401 -109 359 -58 b 281 -59 292 -58 288 -59 l 363 28 l 234 28 l 107 -113 l 136 -154 b 169 -149 149 -151 160 -149 b 209 -180 205 -149 210 -169 b 22 -233 205 -210 154 -233 z "},"˛":{"ha":451,"x_min":0,"x_max":0,"o":"m 378 -372 l 352 -189 b 271 -201 317 -197 286 -201 b 232 -157 243 -201 232 -180 b 366 0 232 -111 272 -69 l 235 23 b 30 -218 123 -7 30 -101 b 248 -387 30 -323 106 -387 b 378 -372 287 -387 330 -382 z "}}}
